<svg width="31" height="31" viewBox="0 0 31 31" fill="none" xmlns="http://www.w3.org/2000/svg">
<path d="M21.3772 12.4083H17.7241V11.5012H21.3787V12.4098L21.3772 12.4083ZM15.2916 16.1315C15.5279 16.496 15.6445 16.9394 15.6445 17.46C15.6445 17.9996 15.5133 18.4808 15.242 18.9081C15.0613 19.2083 14.8198 19.4673 14.533 19.6685C14.2462 19.8697 13.9204 20.0086 13.5766 20.0762C13.1546 20.1607 12.7251 20.2017 12.2947 20.1987H8.2085V11.125H12.5908C13.6947 11.1425 14.4779 11.4633 14.9402 12.0919C15.2172 12.4769 15.3558 12.9392 15.3558 13.4773C15.3558 14.0315 15.2172 14.4763 14.9358 14.8131C14.7812 15.0027 14.5508 15.1748 14.246 15.3294C14.7068 15.4985 15.0568 15.764 15.2916 16.1315ZM10.3012 14.7023H12.2218C12.6156 14.7023 12.935 14.6279 13.18 14.4777C13.4264 14.3275 13.5489 14.0621 13.5489 13.68C13.5489 13.2571 13.387 12.9771 13.0618 12.8429C12.7144 12.7389 12.3526 12.6906 11.99 12.7H10.3012V14.7023ZM13.7341 17.3302C13.7341 16.8592 13.5402 16.534 13.1566 16.359C12.9408 16.2598 12.6375 16.2087 12.2495 16.2044H10.3012V18.6223H12.2189C12.6127 18.6223 12.9189 18.5712 13.1377 18.4633C13.5343 18.2665 13.7341 17.8902 13.7341 17.3302ZM22.7335 15.8544C22.7772 16.1519 22.7977 16.5821 22.7904 17.145H18.0581C18.0843 17.7983 18.3089 18.2548 18.7377 18.5158C18.9943 18.6806 19.3064 18.7608 19.6739 18.7608C20.0604 18.7608 20.3739 18.6631 20.6175 18.4619C20.7625 18.3381 20.881 18.1863 20.966 18.0156H22.7014C22.6547 18.4021 22.4462 18.7929 22.0714 19.191C21.4881 19.8225 20.6743 20.139 19.6258 20.139C18.7924 20.1497 17.9819 19.8668 17.3362 19.3398C16.677 18.806 16.3445 17.9398 16.3445 16.7367C16.3445 15.6094 16.6435 14.746 17.24 14.1452C17.8379 13.5429 18.6122 13.244 19.566 13.244C20.1304 13.244 20.6393 13.3446 21.0943 13.5473C21.5464 13.7515 21.9212 14.0708 22.2158 14.5098C22.4827 14.8977 22.6533 15.344 22.7335 15.8544ZM21.0272 16.0235C20.9952 15.5715 20.8435 15.2302 20.5722 14.9969C20.2923 14.7584 19.9336 14.6326 19.566 14.644C19.1285 14.644 18.7916 14.7708 18.551 15.0173C18.3104 15.2652 18.1602 15.6006 18.0989 16.0235H21.0272Z" fill="white"/>
<path d="M6.75008 3.83342C5.97653 3.83342 5.23467 4.14071 4.68769 4.68769C4.14071 5.23467 3.83342 5.97653 3.83342 6.75008V24.2501C3.83342 25.0236 4.14071 25.7655 4.68769 26.3125C5.23467 26.8595 5.97653 27.1668 6.75008 27.1668H24.2501C25.0236 27.1668 25.7655 26.8595 26.3125 26.3125C26.8595 25.7655 27.1668 25.0236 27.1668 24.2501V6.75008C27.1668 5.97653 26.8595 5.23467 26.3125 4.68769C25.7655 4.14071 25.0236 3.83342 24.2501 3.83342H6.75008ZM6.75008 0.916748H24.2501C25.7972 0.916748 27.2809 1.53133 28.3749 2.62529C29.4688 3.71925 30.0834 5.20299 30.0834 6.75008V24.2501C30.0834 25.7972 29.4688 27.2809 28.3749 28.3749C27.2809 29.4688 25.7972 30.0834 24.2501 30.0834H6.75008C5.20299 30.0834 3.71925 29.4688 2.62529 28.3749C1.53133 27.2809 0.916748 25.7972 0.916748 24.2501V6.75008C0.916748 5.20299 1.53133 3.71925 2.62529 2.62529C3.71925 1.53133 5.20299 0.916748 6.75008 0.916748V0.916748Z" fill="white"/>
</svg>
