<svg width="166" height="141" viewBox="0 0 166 141" fill="none" xmlns="http://www.w3.org/2000/svg">
<path d="M44.5428 61.2725V65.8425C44.5428 66.6892 44.3195 67.3325 43.8728 67.7725C43.4328 68.2059 42.8128 68.4225 42.0128 68.4225C41.1528 68.4225 40.4694 68.1859 39.9628 67.7125C39.4561 67.2392 39.2028 66.5492 39.2028 65.6425H41.3928C41.3928 65.9292 41.4395 66.1325 41.5328 66.2525C41.6261 66.3659 41.7528 66.4225 41.9128 66.4225C42.0461 66.4225 42.1495 66.3792 42.2228 66.2925C42.2961 66.2059 42.3328 66.0559 42.3328 65.8425V61.2725H44.5428ZM48.1812 68.4225C47.6146 68.4225 47.1046 68.3059 46.6512 68.0725C46.1979 67.8392 45.8412 67.5059 45.5812 67.0725C45.3279 66.6325 45.2012 66.1192 45.2012 65.5325C45.2012 64.9459 45.3279 64.4359 45.5812 64.0025C45.8412 63.5625 46.1979 63.2259 46.6512 62.9925C47.1046 62.7592 47.6146 62.6425 48.1812 62.6425C48.7479 62.6425 49.2579 62.7592 49.7112 62.9925C50.1646 63.2259 50.5179 63.5625 50.7712 64.0025C51.0312 64.4359 51.1612 64.9459 51.1612 65.5325C51.1612 66.1192 51.0312 66.6325 50.7712 67.0725C50.5179 67.5059 50.1646 67.8392 49.7112 68.0725C49.2579 68.3059 48.7479 68.4225 48.1812 68.4225ZM48.1812 66.5025C48.3879 66.5025 48.5612 66.4225 48.7012 66.2625C48.8412 66.0959 48.9112 65.8525 48.9112 65.5325C48.9112 65.2125 48.8412 64.9725 48.7012 64.8125C48.5612 64.6459 48.3879 64.5625 48.1812 64.5625C47.9746 64.5625 47.8012 64.6459 47.6612 64.8125C47.5212 64.9725 47.4512 65.2125 47.4512 65.5325C47.4512 65.8525 47.5179 66.0959 47.6512 66.2625C47.7912 66.4225 47.9679 66.5025 48.1812 66.5025ZM57.0079 68.4225C56.3412 68.4225 55.7279 68.2659 55.1679 67.9525C54.6145 67.6392 54.1745 67.2059 53.8479 66.6525C53.5212 66.0992 53.3579 65.4759 53.3579 64.7825C53.3579 64.0892 53.5212 63.4659 53.8479 62.9125C54.1745 62.3592 54.6145 61.9292 55.1679 61.6225C55.7279 61.3092 56.3412 61.1525 57.0079 61.1525C57.6745 61.1525 58.2845 61.3092 58.8379 61.6225C59.3912 61.9292 59.8279 62.3592 60.1479 62.9125C60.4745 63.4659 60.6379 64.0892 60.6379 64.7825C60.6379 65.4759 60.4745 66.0992 60.1479 66.6525C59.8279 67.2059 59.3879 67.6392 58.8279 67.9525C58.2745 68.2659 57.6679 68.4225 57.0079 68.4225ZM57.0079 66.3525C57.4479 66.3525 57.7879 66.2125 58.0279 65.9325C58.2679 65.6459 58.3879 65.2625 58.3879 64.7825C58.3879 64.2959 58.2679 63.9125 58.0279 63.6325C57.7879 63.3459 57.4479 63.2025 57.0079 63.2025C56.5612 63.2025 56.2179 63.3459 55.9779 63.6325C55.7379 63.9125 55.6179 64.2959 55.6179 64.7825C55.6179 65.2625 55.7379 65.6459 55.9779 65.9325C56.2179 66.2125 56.5612 66.3525 57.0079 66.3525ZM62.0187 61.2725H64.2187L63.0387 64.2225H61.5787L62.0187 61.2725ZM69.498 68.3525L67.438 65.2825V68.3525H65.218V61.2725H67.438V64.2525L69.468 61.2725H71.978L69.538 64.6625L72.138 68.3525H69.498ZM76.7168 62.6725C77.3635 62.6725 77.8668 62.8892 78.2268 63.3225C78.5935 63.7559 78.7768 64.3425 78.7768 65.0825V68.3525H76.5668V65.3625C76.5668 65.0959 76.4935 64.8859 76.3468 64.7325C76.2068 64.5725 76.0168 64.4925 75.7768 64.4925C75.5302 64.4925 75.3368 64.5725 75.1968 64.7325C75.0568 64.8859 74.9868 65.0959 74.9868 65.3625V68.3525H72.7668V60.9525H74.9868V63.5725C75.1602 63.3059 75.3902 63.0892 75.6768 62.9225C75.9702 62.7559 76.3168 62.6725 76.7168 62.6725ZM79.4395 65.5325C79.4395 64.9392 79.5395 64.4259 79.7395 63.9925C79.9462 63.5525 80.2262 63.2192 80.5795 62.9925C80.9328 62.7592 81.3295 62.6425 81.7695 62.6425C82.1362 62.6425 82.4528 62.7192 82.7195 62.8725C82.9862 63.0192 83.1895 63.2225 83.3295 63.4825V62.7125H85.5395V68.3525H83.3295V67.5825C83.1895 67.8425 82.9862 68.0492 82.7195 68.2025C82.4528 68.3492 82.1362 68.4225 81.7695 68.4225C81.3295 68.4225 80.9328 68.3092 80.5795 68.0825C80.2262 67.8492 79.9462 67.5159 79.7395 67.0825C79.5395 66.6425 79.4395 66.1259 79.4395 65.5325ZM83.3295 65.5325C83.3295 65.2325 83.2528 64.9992 83.0995 64.8325C82.9462 64.6659 82.7495 64.5825 82.5095 64.5825C82.2695 64.5825 82.0728 64.6659 81.9195 64.8325C81.7662 64.9992 81.6895 65.2325 81.6895 65.5325C81.6895 65.8325 81.7662 66.0659 81.9195 66.2325C82.0728 66.3992 82.2695 66.4825 82.5095 66.4825C82.7495 66.4825 82.9462 66.3992 83.0995 66.2325C83.2528 66.0659 83.3295 65.8325 83.3295 65.5325ZM89.7864 62.3125C89.6664 62.2992 89.583 62.2925 89.5364 62.2925C89.3697 62.2925 89.243 62.3259 89.1564 62.3925C89.0697 62.4525 89.0097 62.5592 88.9764 62.7125H89.7864V64.5625H88.9564V68.3525H86.7364V64.5625H86.1364V62.7125H86.7364C86.7497 61.9792 86.9797 61.4125 87.4264 61.0125C87.8797 60.6059 88.513 60.4025 89.3264 60.4025C89.4197 60.4025 89.573 60.4092 89.7864 60.4225V62.3125ZM93.064 68.4225C92.4974 68.4225 91.9874 68.3059 91.534 68.0725C91.0807 67.8392 90.724 67.5059 90.464 67.0725C90.2107 66.6325 90.084 66.1192 90.084 65.5325C90.084 64.9459 90.2107 64.4359 90.464 64.0025C90.724 63.5625 91.0807 63.2259 91.534 62.9925C91.9874 62.7592 92.4974 62.6425 93.064 62.6425C93.6307 62.6425 94.1407 62.7592 94.594 62.9925C95.0474 63.2259 95.4007 63.5625 95.654 64.0025C95.914 64.4359 96.044 64.9459 96.044 65.5325C96.044 66.1192 95.914 66.6325 95.654 67.0725C95.4007 67.5059 95.0474 67.8392 94.594 68.0725C94.1407 68.3059 93.6307 68.4225 93.064 68.4225ZM93.064 66.5025C93.2707 66.5025 93.444 66.4225 93.584 66.2625C93.724 66.0959 93.794 65.8525 93.794 65.5325C93.794 65.2125 93.724 64.9725 93.584 64.8125C93.444 64.6459 93.2707 64.5625 93.064 64.5625C92.8574 64.5625 92.684 64.6459 92.544 64.8125C92.404 64.9725 92.334 65.2125 92.334 65.5325C92.334 65.8525 92.4007 66.0959 92.534 66.2625C92.674 66.4225 92.8507 66.5025 93.064 66.5025ZM98.9615 63.7525C99.1881 63.4259 99.4648 63.1659 99.7915 62.9725C100.118 62.7725 100.458 62.6725 100.811 62.6725V65.0425H100.181C99.7615 65.0425 99.4515 65.1159 99.2515 65.2625C99.0581 65.4092 98.9615 65.6692 98.9615 66.0425V68.3525H96.7415V62.7125H98.9615V63.7525ZM102.509 68.4325C102.123 68.4325 101.813 68.3292 101.579 68.1225C101.346 67.9159 101.229 67.6559 101.229 67.3425C101.229 67.0225 101.346 66.7592 101.579 66.5525C101.813 66.3392 102.123 66.2325 102.509 66.2325C102.889 66.2325 103.196 66.3392 103.429 66.5525C103.663 66.7592 103.779 67.0225 103.779 67.3425C103.779 67.6559 103.663 67.9159 103.429 68.1225C103.196 68.3292 102.889 68.4325 102.509 68.4325Z" fill="#F20000"/>
<path d="M42.114 73.135C42.632 73.135 43.0847 73.2353 43.472 73.436C43.864 73.632 44.165 73.9167 44.375 74.29C44.5897 74.6587 44.697 75.0903 44.697 75.585C44.697 76.0797 44.5897 76.509 44.375 76.873C44.165 77.237 43.864 77.517 43.472 77.713C43.0847 77.9043 42.632 78 42.114 78H40.525V73.135H42.114ZM42.114 77.349C42.6833 77.349 43.1197 77.195 43.423 76.887C43.7263 76.579 43.878 76.145 43.878 75.585C43.878 75.0203 43.7263 74.5793 43.423 74.262C43.1197 73.9447 42.6833 73.786 42.114 73.786H41.323V77.349H42.114ZM45.8939 73.632C45.7492 73.632 45.6279 73.583 45.5299 73.485C45.4319 73.387 45.3829 73.2657 45.3829 73.121C45.3829 72.9763 45.4319 72.855 45.5299 72.757C45.6279 72.659 45.7492 72.61 45.8939 72.61C46.0339 72.61 46.1529 72.659 46.2509 72.757C46.3489 72.855 46.3979 72.9763 46.3979 73.121C46.3979 73.2657 46.3489 73.387 46.2509 73.485C46.1529 73.583 46.0339 73.632 45.8939 73.632ZM46.2859 74.143V78H45.4879V74.143H46.2859ZM48.8876 74.08C49.1863 74.08 49.4499 74.1407 49.6786 74.262C49.9119 74.3787 50.0939 74.5257 50.2246 74.703V74.143H51.0296V78.063C51.0296 78.4177 50.9549 78.7327 50.8056 79.008C50.6563 79.288 50.4393 79.5073 50.1546 79.666C49.8746 79.8247 49.5386 79.904 49.1466 79.904C48.6239 79.904 48.1899 79.7803 47.8446 79.533C47.4993 79.2903 47.3033 78.959 47.2566 78.539H48.0476C48.1083 78.7397 48.2366 78.9007 48.4326 79.022C48.6333 79.148 48.8713 79.211 49.1466 79.211C49.4686 79.211 49.7276 79.113 49.9236 78.917C50.1243 78.721 50.2246 78.4363 50.2246 78.063V77.419C50.0893 77.601 49.9049 77.755 49.6716 77.881C49.4429 78.0023 49.1816 78.063 48.8876 78.063C48.5516 78.063 48.2436 77.979 47.9636 77.811C47.6883 77.6383 47.4689 77.4003 47.3056 77.097C47.1469 76.789 47.0676 76.4413 47.0676 76.054C47.0676 75.6667 47.1469 75.3237 47.3056 75.025C47.4689 74.7263 47.6883 74.4953 47.9636 74.332C48.2436 74.164 48.5516 74.08 48.8876 74.08ZM50.2246 76.068C50.2246 75.802 50.1686 75.571 50.0566 75.375C49.9493 75.179 49.8069 75.0297 49.6296 74.927C49.4523 74.8243 49.2609 74.773 49.0556 74.773C48.8503 74.773 48.6589 74.8243 48.4816 74.927C48.3043 75.025 48.1596 75.172 48.0476 75.368C47.9403 75.5593 47.8866 75.788 47.8866 76.054C47.8866 76.32 47.9403 76.5533 48.0476 76.754C48.1596 76.9547 48.3043 77.1087 48.4816 77.216C48.6636 77.3187 48.8549 77.37 49.0556 77.37C49.2609 77.37 49.4523 77.3187 49.6296 77.216C49.8069 77.1133 49.9493 76.964 50.0566 76.768C50.1686 76.5673 50.2246 76.334 50.2246 76.068ZM52.4837 73.632C52.3391 73.632 52.2177 73.583 52.1197 73.485C52.0217 73.387 51.9727 73.2657 51.9727 73.121C51.9727 72.9763 52.0217 72.855 52.1197 72.757C52.2177 72.659 52.3391 72.61 52.4837 72.61C52.6237 72.61 52.7427 72.659 52.8407 72.757C52.9387 72.855 52.9877 72.9763 52.9877 73.121C52.9877 73.2657 52.9387 73.387 52.8407 73.485C52.7427 73.583 52.6237 73.632 52.4837 73.632ZM52.8757 74.143V78H52.0777V74.143H52.8757ZM54.8544 74.794V76.929C54.8544 77.0737 54.8871 77.1787 54.9524 77.244C55.0224 77.3047 55.1391 77.335 55.3024 77.335H55.7924V78H55.1624C54.8031 78 54.5278 77.916 54.3364 77.748C54.1451 77.58 54.0494 77.307 54.0494 76.929V74.794H53.5944V74.143H54.0494V73.184H54.8544V74.143H55.7924V74.794H54.8544ZM56.2619 76.054C56.2619 75.6667 56.3413 75.3237 56.4999 75.025C56.6633 74.7263 56.8826 74.4953 57.1579 74.332C57.4379 74.164 57.7459 74.08 58.0819 74.08C58.3853 74.08 58.6489 74.1407 58.8729 74.262C59.1016 74.3787 59.2836 74.5257 59.4189 74.703V74.143H60.2239V78H59.4189V77.426C59.2836 77.608 59.0993 77.7597 58.8659 77.881C58.6326 78.0023 58.3666 78.063 58.0679 78.063C57.7366 78.063 57.4333 77.979 57.1579 77.811C56.8826 77.6383 56.6633 77.4003 56.4999 77.097C56.3413 76.789 56.2619 76.4413 56.2619 76.054ZM59.4189 76.068C59.4189 75.802 59.3629 75.571 59.2509 75.375C59.1436 75.179 59.0013 75.0297 58.8239 74.927C58.6466 74.8243 58.4553 74.773 58.2499 74.773C58.0446 74.773 57.8533 74.8243 57.6759 74.927C57.4986 75.025 57.3539 75.172 57.2419 75.368C57.1346 75.5593 57.0809 75.788 57.0809 76.054C57.0809 76.32 57.1346 76.5533 57.2419 76.754C57.3539 76.9547 57.4986 77.1087 57.6759 77.216C57.8579 77.3187 58.0493 77.37 58.2499 77.37C58.4553 77.37 58.6466 77.3187 58.8239 77.216C59.0013 77.1133 59.1436 76.964 59.2509 76.768C59.3629 76.5673 59.4189 76.334 59.4189 76.068ZM62.0701 72.82V78H61.2721V72.82H62.0701ZM66.5531 74.794H65.8391V78H65.0341V74.794H64.5791V74.143H65.0341V73.87C65.0341 73.4267 65.1508 73.1047 65.3841 72.904C65.6221 72.6987 65.9931 72.596 66.4971 72.596V73.261C66.2545 73.261 66.0841 73.3077 65.9861 73.401C65.8881 73.4897 65.8391 73.646 65.8391 73.87V74.143H66.5531V74.794ZM68.0584 74.703C68.175 74.507 68.329 74.3553 68.5204 74.248C68.7164 74.136 68.9474 74.08 69.2134 74.08V74.906H69.0104C68.6977 74.906 68.4597 74.9853 68.2964 75.144C68.1377 75.3027 68.0584 75.578 68.0584 75.97V78H67.2604V74.143H68.0584V74.703ZM73.4819 75.977C73.4819 76.1217 73.4725 76.2523 73.4539 76.369H70.5069C70.5302 76.677 70.6445 76.9243 70.8499 77.111C71.0552 77.2977 71.3072 77.391 71.6059 77.391C72.0352 77.391 72.3385 77.2113 72.5159 76.852H73.3769C73.2602 77.2067 73.0479 77.4983 72.7399 77.727C72.4365 77.951 72.0585 78.063 71.6059 78.063C71.2372 78.063 70.9059 77.9813 70.6119 77.818C70.3225 77.65 70.0939 77.4167 69.9259 77.118C69.7625 76.8147 69.6809 76.4647 69.6809 76.068C69.6809 75.6713 69.7602 75.3237 69.9189 75.025C70.0822 74.7217 70.3085 74.4883 70.5979 74.325C70.8919 74.1617 71.2279 74.08 71.6059 74.08C71.9699 74.08 72.2942 74.1593 72.5789 74.318C72.8635 74.4767 73.0852 74.7007 73.2439 74.99C73.4025 75.2747 73.4819 75.6037 73.4819 75.977ZM72.6489 75.725C72.6442 75.431 72.5392 75.1953 72.3339 75.018C72.1285 74.8407 71.8742 74.752 71.5709 74.752C71.2955 74.752 71.0599 74.8407 70.8639 75.018C70.6679 75.1907 70.5512 75.4263 70.5139 75.725H72.6489ZM77.8022 75.977C77.8022 76.1217 77.7929 76.2523 77.7742 76.369H74.8272C74.8505 76.677 74.9649 76.9243 75.1702 77.111C75.3755 77.2977 75.6275 77.391 75.9262 77.391C76.3555 77.391 76.6589 77.2113 76.8362 76.852H77.6972C77.5805 77.2067 77.3682 77.4983 77.0602 77.727C76.7569 77.951 76.3789 78.063 75.9262 78.063C75.5575 78.063 75.2262 77.9813 74.9322 77.818C74.6429 77.65 74.4142 77.4167 74.2462 77.118C74.0829 76.8147 74.0012 76.4647 74.0012 76.068C74.0012 75.6713 74.0805 75.3237 74.2392 75.025C74.4025 74.7217 74.6289 74.4883 74.9182 74.325C75.2122 74.1617 75.5482 74.08 75.9262 74.08C76.2902 74.08 76.6145 74.1593 76.8992 74.318C77.1839 74.4767 77.4055 74.7007 77.5642 74.99C77.7229 75.2747 77.8022 75.6037 77.8022 75.977ZM76.9692 75.725C76.9645 75.431 76.8595 75.1953 76.6542 75.018C76.4489 74.8407 76.1945 74.752 75.8912 74.752C75.6159 74.752 75.3802 74.8407 75.1842 75.018C74.9882 75.1907 74.8715 75.4263 74.8342 75.725H76.9692ZM79.3855 72.82V78H78.5875V72.82H79.3855ZM80.1672 76.054C80.1672 75.6667 80.2465 75.3237 80.4052 75.025C80.5685 74.7263 80.7879 74.4953 81.0632 74.332C81.3432 74.164 81.6512 74.08 81.9872 74.08C82.2905 74.08 82.5542 74.1407 82.7782 74.262C83.0069 74.3787 83.1889 74.5257 83.3242 74.703V74.143H84.1292V78H83.3242V77.426C83.1889 77.608 83.0045 77.7597 82.7712 77.881C82.5379 78.0023 82.2719 78.063 81.9732 78.063C81.6419 78.063 81.3385 77.979 81.0632 77.811C80.7879 77.6383 80.5685 77.4003 80.4052 77.097C80.2465 76.789 80.1672 76.4413 80.1672 76.054ZM83.3242 76.068C83.3242 75.802 83.2682 75.571 83.1562 75.375C83.0489 75.179 82.9065 75.0297 82.7292 74.927C82.5519 74.8243 82.3605 74.773 82.1552 74.773C81.9499 74.773 81.7585 74.8243 81.5812 74.927C81.4039 75.025 81.2592 75.172 81.1472 75.368C81.0399 75.5593 80.9862 75.788 80.9862 76.054C80.9862 76.32 81.0399 76.5533 81.1472 76.754C81.2592 76.9547 81.4039 77.1087 81.5812 77.216C81.7632 77.3187 81.9545 77.37 82.1552 77.37C82.3605 77.37 82.5519 77.3187 82.7292 77.216C82.9065 77.1133 83.0489 76.964 83.1562 76.768C83.2682 76.5673 83.3242 76.334 83.3242 76.068ZM87.1233 74.08C87.4267 74.08 87.6973 74.143 87.9353 74.269C88.178 74.395 88.367 74.5817 88.5023 74.829C88.6377 75.0763 88.7053 75.375 88.7053 75.725V78H87.9143V75.844C87.9143 75.4987 87.828 75.235 87.6553 75.053C87.4827 74.8663 87.247 74.773 86.9483 74.773C86.6497 74.773 86.4117 74.8663 86.2343 75.053C86.0617 75.235 85.9753 75.4987 85.9753 75.844V78H85.1773V74.143H85.9753V74.584C86.106 74.4253 86.2717 74.3017 86.4723 74.213C86.6777 74.1243 86.8947 74.08 87.1233 74.08ZM89.4572 76.068C89.4572 75.6713 89.5366 75.3237 89.6952 75.025C89.8586 74.7217 90.0826 74.4883 90.3672 74.325C90.6519 74.1617 90.9786 74.08 91.3472 74.08C91.8139 74.08 92.1989 74.192 92.5022 74.416C92.8102 74.6353 93.0179 74.9503 93.1252 75.361H92.2642C92.1942 75.1697 92.0822 75.0203 91.9282 74.913C91.7742 74.8057 91.5806 74.752 91.3472 74.752C91.0206 74.752 90.7592 74.8687 90.5632 75.102C90.3719 75.3307 90.2762 75.6527 90.2762 76.068C90.2762 76.4833 90.3719 76.8077 90.5632 77.041C90.7592 77.2743 91.0206 77.391 91.3472 77.391C91.8092 77.391 92.1149 77.188 92.2642 76.782H93.1252C93.0132 77.174 92.8032 77.4867 92.4952 77.72C92.1872 77.9487 91.8046 78.063 91.3472 78.063C90.9786 78.063 90.6519 77.9813 90.3672 77.818C90.0826 77.65 89.8586 77.4167 89.6952 77.118C89.5366 76.8147 89.4572 76.4647 89.4572 76.068ZM97.4555 75.977C97.4555 76.1217 97.4462 76.2523 97.4275 76.369H94.4805C94.5038 76.677 94.6182 76.9243 94.8235 77.111C95.0288 77.2977 95.2808 77.391 95.5795 77.391C96.0088 77.391 96.3122 77.2113 96.4895 76.852H97.3505C97.2338 77.2067 97.0215 77.4983 96.7135 77.727C96.4102 77.951 96.0322 78.063 95.5795 78.063C95.2108 78.063 94.8795 77.9813 94.5855 77.818C94.2962 77.65 94.0675 77.4167 93.8995 77.118C93.7362 76.8147 93.6545 76.4647 93.6545 76.068C93.6545 75.6713 93.7338 75.3237 93.8925 75.025C94.0558 74.7217 94.2822 74.4883 94.5715 74.325C94.8655 74.1617 95.2015 74.08 95.5795 74.08C95.9435 74.08 96.2678 74.1593 96.5525 74.318C96.8372 74.4767 97.0588 74.7007 97.2175 74.99C97.3762 75.2747 97.4555 75.6037 97.4555 75.977ZM96.6225 75.725C96.6178 75.431 96.5128 75.1953 96.3075 75.018C96.1022 74.8407 95.8478 74.752 95.5445 74.752C95.2692 74.752 95.0335 74.8407 94.8375 75.018C94.6415 75.1907 94.5248 75.4263 94.4875 75.725H96.6225Z" fill="#F20000"/>
<path d="M120.74 64.4096C121.349 64.3486 121.91 64.4341 122.421 64.6663C122.934 64.9044 123.348 65.2517 123.665 65.7084C123.989 66.1704 124.18 66.691 124.238 67.2701C124.304 67.9328 124.199 68.5373 123.922 69.0836C123.652 69.6353 123.23 70.0575 122.656 70.3502L122.533 69.1233C122.846 68.9292 123.068 68.6808 123.2 68.3781C123.333 68.0754 123.38 67.7359 123.343 67.3598C123.301 66.9479 123.172 66.59 122.955 66.2862C122.737 65.9823 122.446 65.7552 122.081 65.6048C121.717 65.4604 121.305 65.4113 120.845 65.4574C120.386 65.5034 119.992 65.6334 119.663 65.8472C119.336 66.0669 119.092 66.3476 118.934 66.6891C118.781 67.0301 118.725 67.4065 118.766 67.8184C118.804 68.1945 118.918 68.5178 119.108 68.7882C119.298 69.0586 119.565 69.258 119.91 69.3863L120.032 70.6131C119.412 70.4401 118.915 70.1101 118.54 69.623C118.166 69.1419 117.946 68.57 117.88 67.9073C117.821 67.3222 117.902 66.7744 118.122 66.2639C118.348 65.7528 118.689 65.3298 119.144 64.9947C119.599 64.6657 120.131 64.4706 120.74 64.4096Z" fill="black"/>
<path d="M117.945 74.7946L120.487 73.4274L120.51 72.6447L118.009 72.5725L118.038 71.5469L124.291 71.7274L124.229 73.8865C124.215 74.3663 124.119 74.7687 123.942 75.0937C123.764 75.4247 123.532 75.6671 123.245 75.8209C122.959 75.9807 122.641 76.0556 122.293 76.0455C121.886 76.0338 121.517 75.9031 121.188 75.6535C120.865 75.4101 120.651 75.0407 120.545 74.5455L117.909 76.0181L117.945 74.7946ZM121.328 72.6683L121.296 73.8018C121.285 74.1857 121.372 74.4763 121.559 74.6738C121.745 74.8772 122 74.9836 122.324 74.993C122.648 75.0023 122.902 74.9136 123.088 74.7269C123.279 74.5403 123.381 74.2521 123.392 73.8623L123.425 72.7288L121.328 72.6683Z" fill="black"/>
<path d="M122.846 79.2956L121.03 79.0278L120.715 81.1647L119.887 81.0426L120.202 78.9057L118.306 78.6261L117.951 81.0301L117.123 80.908L117.627 77.489L123.824 78.4026L123.32 81.8217L122.492 81.6996L122.846 79.2956Z" fill="black"/>
<path d="M116.882 86.7222L117.58 84.1977L116.468 83.4237L116.753 82.3913L122.194 86.2193L121.878 87.3644L115.243 87.8566L115.531 86.8156L116.882 86.7222ZM117.766 86.6674L120.839 86.4612L118.31 84.6982L117.766 86.6674Z" fill="black"/>
<path d="M118.875 95.0845L118.103 94.76L118.749 93.2253L113.755 91.1241L114.153 90.1784L119.147 92.2795L119.796 90.7366L120.567 91.0611L118.875 95.0845Z" fill="black"/>
<path d="M117.099 98.2876L111.623 95.2636L112.119 94.3655L117.595 97.3895L117.099 98.2876Z" fill="black"/>
<path d="M111.937 106.003L108.191 100.47L108.878 99.5003L115.345 101.193L114.71 102.089L109.394 100.594L112.561 105.122L111.937 106.003Z" fill="black"/>
<path d="M109.283 107.563L107.927 106.325L106.471 107.921L105.853 107.357L107.309 105.761L105.893 104.469L104.255 106.264L103.636 105.7L105.966 103.147L110.593 107.369L108.264 109.922L107.645 109.358L109.283 107.563Z" fill="black"/>
<path d="M100.857 115.998C100.315 116.384 99.7657 116.616 99.2104 116.695C98.6536 116.781 98.1261 116.708 97.6278 116.473C97.1281 116.247 96.6939 115.875 96.3252 115.356C95.9565 114.838 95.7489 114.308 95.7024 113.767C95.6511 113.229 95.7577 112.712 96.0222 112.214C96.2854 111.725 96.6883 111.287 97.2309 110.901L98.8955 109.717L102.522 114.813L100.857 115.998ZM97.7162 111.583C97.1198 112.007 96.7775 112.494 96.6893 113.043C96.6011 113.592 96.7657 114.159 97.1832 114.746C97.6041 115.337 98.0917 115.686 98.646 115.793C99.2003 115.899 99.7757 115.74 100.372 115.316L101.201 114.726L98.5448 110.993L97.7162 111.583Z" fill="black"/>
<path d="M95.5261 119.26L92.4917 113.79L93.3889 113.293L96.4233 118.762L95.5261 119.26Z" fill="black"/>
<path d="M87.1614 121.063C87.4309 121.289 87.7285 121.419 88.0544 121.452C88.3825 121.491 88.7211 121.438 89.07 121.292C89.4522 121.133 89.7571 120.905 89.9847 120.609C90.2123 120.313 90.3463 119.971 90.3865 119.584C90.4212 119.199 90.3521 118.799 90.1791 118.383C90.0061 117.968 89.7696 117.634 89.4697 117.382C89.1665 117.138 88.8296 116.992 88.459 116.945C88.0884 116.898 87.712 116.954 87.3298 117.113C86.8147 117.328 86.4565 117.646 86.2552 118.068C86.0538 118.489 86.0198 118.962 86.1531 119.485L88.3216 118.582L88.6364 119.338L85.4543 120.663L85.1463 119.923C85.0205 119.449 85.0093 118.97 85.1127 118.485C85.2107 118.002 85.4201 117.561 85.741 117.16C86.0586 116.768 86.4694 116.467 86.9735 116.257C87.5163 116.031 88.0639 115.949 88.6164 116.012C89.1711 116.08 89.6749 116.283 90.1276 116.621C90.5747 116.961 90.9159 117.414 91.1512 117.979C91.3864 118.544 91.4673 119.105 91.3938 119.662C91.3147 120.221 91.1028 120.719 90.7579 121.155C90.4098 121.599 89.9671 121.933 89.4298 122.156C88.815 122.412 88.206 122.487 87.6028 122.381C86.9963 122.282 86.4698 122.001 86.0231 121.537L87.1614 121.063Z" fill="black"/>
<path d="M84.2242 123.768L82.4798 117.761L83.4651 117.475L85.2095 123.482L84.2242 123.768Z" fill="black"/>
<path d="M76.4664 125.373L76.3197 124.549L77.9589 124.257L77.0087 118.923L78.0188 118.743L78.969 124.078L80.617 123.784L80.7638 124.608L76.4664 125.373Z" fill="black"/>
<path d="M69.7888 120.78L72.4048 120.656L72.7935 119.358L73.8633 119.307L71.9226 125.67L70.7359 125.727L68.1997 119.576L69.2785 119.525L69.7888 120.78ZM70.1162 121.603L71.2702 124.458L72.1569 121.505L70.1162 121.603Z" fill="black"/>
<path d="M65.8711 120.115L63.7613 119.967L63.8192 119.141L66.9525 119.361L66.5151 125.601L65.4916 125.529L65.8711 120.115Z" fill="black"/>
<path d="M52.7294 123.027L52.9493 122.219L55.511 122.917L55.9958 121.137L53.9985 120.593L54.2185 119.785L56.2157 120.329L56.9347 117.689L57.9246 117.959L56.281 123.994L52.7294 123.027Z" fill="black"/>
<path d="M49.7877 115.135L50.1871 117.994L50.9133 118.287L51.8493 115.967L52.8008 116.351L50.4608 122.152L48.4576 121.344C48.0125 121.164 47.6683 120.935 47.4251 120.655C47.1764 120.374 47.0296 120.072 46.9849 119.75C46.9346 119.426 46.9745 119.102 47.1047 118.779C47.2573 118.401 47.5078 118.101 47.8561 117.879C48.1965 117.66 48.6173 117.588 49.1185 117.66L48.6526 114.677L49.7877 115.135ZM50.6069 119.047L49.5552 118.623C49.1991 118.479 48.8961 118.46 48.6462 118.566C48.3908 118.67 48.2025 118.873 48.0812 119.173C47.96 119.474 47.9548 119.743 48.0655 119.982C48.174 120.226 48.4091 120.421 48.7708 120.567L49.8224 120.992L50.6069 119.047Z" fill="black"/>
<path d="M43.8644 118.169L44.7462 116.559L42.8516 115.522L43.2536 114.787L45.1482 115.825L46.0689 114.143L43.9375 112.976L44.3394 112.242L47.3708 113.902L44.3624 119.396L41.331 117.736L41.733 117.002L43.8644 118.169Z" fill="black"/>
<path d="M38.7851 114.976L39.8412 113.474L38.0744 112.232L38.5559 111.547L40.3227 112.789L41.4255 111.221L39.4378 109.824L39.9192 109.139L42.7462 111.127L39.1429 116.251L36.3159 114.263L36.7974 113.578L38.7851 114.976Z" fill="black"/>
<path d="M37.1275 107.781L35.5364 106.387L36.0819 105.764L38.4449 107.834L34.324 112.539L33.5521 111.863L37.1275 107.781Z" fill="black"/>
<path d="M31.4851 102.612L33.2395 104.556L34.4898 104.034L35.2072 104.829L29.0551 107.361L28.2593 106.479L31.4091 100.619L32.1326 101.421L31.4851 102.612ZM31.0566 103.386L29.5794 106.088L32.4251 104.903L31.0566 103.386Z" fill="black"/>
<path d="M27.9125 95.3437L28.4916 96.1907L26.3779 101.375L30.2338 98.7391L30.8129 99.586L25.6419 103.121L25.0628 102.274L27.1691 97.0949L23.3206 99.726L22.7415 98.879L27.9125 95.3437Z" fill="black"/>
<path d="M24.7148 95.8213C24.1679 96.0959 23.614 96.2162 23.0531 96.1823C22.4896 96.143 21.9781 95.9668 21.5187 95.6537C21.0513 95.3378 20.687 94.9199 20.4258 94.3997C20.127 93.8046 20.0092 93.2024 20.0726 92.5932C20.1279 91.9813 20.3711 91.4362 20.8023 90.9578L21.3556 92.0597C21.1334 92.3525 21.0145 92.664 20.999 92.9941C20.9835 93.3241 21.0605 93.6581 21.2301 93.9959C21.4159 94.3659 21.6646 94.6539 21.9762 94.86C22.2878 95.066 22.6409 95.1741 23.0353 95.1842C23.4271 95.1889 23.8294 95.0876 24.2423 94.8802C24.6552 94.6729 24.9767 94.4107 25.2069 94.0937C25.4344 93.7713 25.5613 93.4223 25.5875 93.0466C25.6083 92.6736 25.5258 92.3021 25.3401 91.9321C25.1704 91.5943 24.9486 91.3331 24.6746 91.1484C24.4006 90.9637 24.0798 90.873 23.7122 90.8763L23.1589 89.7745C23.8001 89.7143 24.3826 89.8448 24.9064 90.1659C25.4275 90.4816 25.8375 90.9371 26.1363 91.5323C26.4002 92.0577 26.5205 92.5982 26.4973 93.1537C26.4687 93.7119 26.3019 94.2287 25.9968 94.7042C25.6891 95.1743 25.2617 95.5466 24.7148 95.8213Z" fill="black"/>
<path d="M19.2284 89.02L20.958 88.4039L20.2331 86.3691L21.0216 86.0882L21.7464 88.123L23.5523 87.4797L22.7368 85.1906L23.5253 84.9097L24.685 88.1653L18.7843 90.2674L17.6245 87.0118L18.413 86.7309L19.2284 89.02Z" fill="black"/>
<path d="M18.3541 75.8181C17.7445 75.8718 17.1852 75.7795 16.6763 75.5412C16.1669 75.297 15.7564 74.9447 15.4448 74.4842C15.1267 74.0183 14.9421 73.4955 14.891 72.9158C14.8326 72.2523 14.9451 71.6491 15.2285 71.1062C15.5055 70.5578 15.9325 70.1407 16.5097 69.8549L16.6179 71.0832C16.3034 71.2735 16.0781 71.5192 15.942 71.8203C15.8059 72.1214 15.7544 72.4603 15.7876 72.8368C15.8239 73.2492 15.9489 73.6086 16.1626 73.915C16.3764 74.2215 16.6647 74.4521 17.0277 74.6068C17.3901 74.7556 17.8015 74.8097 18.2617 74.7691C18.7219 74.7286 19.1174 74.6034 19.4483 74.3935C19.7786 74.1777 20.0252 73.9 20.188 73.5604C20.3449 73.2213 20.4052 72.8456 20.3688 72.4332C20.3356 72.0567 20.2257 71.7321 20.0391 71.4594C19.8524 71.1867 19.5876 70.9842 19.2447 70.8517L19.1365 69.6235C19.7547 69.8039 20.2481 70.1399 20.6167 70.6315C20.9847 71.1171 21.1979 71.6916 21.2564 72.355C21.308 72.9407 21.2206 73.4875 20.9943 73.9953C20.762 74.5037 20.4165 74.9226 19.9576 75.2522C19.4982 75.5757 18.9637 75.7644 18.3541 75.8181Z" fill="black"/>
<path d="M21.2723 65.4299L18.7136 66.7665L18.6816 67.5488L21.1815 67.6511L21.1396 68.6762L14.8898 68.4207L14.978 66.2625C14.9977 65.7829 15.0981 65.3817 15.2795 65.0588C15.4611 64.7299 15.696 64.4903 15.9844 64.34C16.273 64.1837 16.5912 64.1126 16.9389 64.1268C17.3466 64.1435 17.7134 64.2786 18.0393 64.5321C18.3595 64.7794 18.5694 65.1513 18.6692 65.6478L21.3223 64.2069L21.2723 65.4299ZM17.8633 67.5154L17.9096 66.3823C17.9253 65.9987 17.8411 65.707 17.6571 65.5073C17.4734 65.3016 17.2196 65.1922 16.8959 65.1789C16.5722 65.1657 16.3165 65.2513 16.1288 65.4358C15.9351 65.62 15.8303 65.907 15.8143 66.2967L15.768 67.4297L17.8633 67.5154Z" fill="black"/>
<path d="M16.4274 60.8363L18.2404 61.1259L18.5811 58.9929L19.4076 59.125L19.0669 61.2579L20.9599 61.5603L21.3432 59.1607L22.1697 59.2928L21.6246 62.7055L15.439 61.7174L15.9842 58.3047L16.8107 58.4367L16.4274 60.8363Z" fill="black"/>
<path d="M22.4864 53.4511L21.7588 55.967L22.8614 56.7543L22.5639 57.7832L17.1691 53.8901L17.4992 52.7488L24.1392 52.3364L23.8391 53.3739L22.4864 53.4511ZM21.6023 53.4952L18.5272 53.6645L21.0347 55.4578L21.6023 53.4952Z" fill="black"/>
<path d="M20.6062 45.0299L21.3738 45.3637L20.7097 46.8906L25.6781 49.0515L25.2688 49.9924L20.3005 47.8314L19.6328 49.3665L18.8652 49.0327L20.6062 45.0299Z" fill="black"/>
<path d="M22.4351 41.8175L27.8738 44.9071L27.367 45.7992L21.9283 42.7096L22.4351 41.8175Z" fill="black"/>
<path d="M27.7023 34.1432L31.3808 39.721L30.6822 40.6819L24.2363 38.9115L24.8818 38.0234L30.1797 39.5823L27.0673 35.0168L27.7023 34.1432Z" fill="black"/>
<path d="M30.3973 32.5857L31.7386 33.8394L33.2136 32.2614L33.8251 32.833L32.3501 34.411L33.7505 35.72L35.4099 33.9448L36.0214 34.5164L33.6614 37.0411L29.0853 32.7636L31.4453 30.2389L32.0567 30.8105L30.3973 32.5857Z" fill="black"/>
<path d="M38.9657 24.2147C39.5129 23.8351 40.0647 23.6094 40.6209 23.5375C41.1787 23.4574 41.7052 23.5375 42.2007 23.7781C42.6976 24.0102 43.1273 24.3876 43.4898 24.9102C43.8523 25.4328 44.0535 25.965 44.0934 26.5069C44.1383 27.0453 44.0255 27.5617 43.755 28.056C43.486 28.542 43.0779 28.9748 42.5306 29.3543L40.8519 30.5187L37.287 25.379L38.9657 24.2147ZM42.0536 28.6666C42.6551 28.2494 43.0032 27.767 43.0979 27.2193C43.1927 26.6716 43.0349 26.102 42.6246 25.5104C42.2108 24.9138 41.7274 24.5591 41.1744 24.4461C40.6214 24.3331 40.0442 24.4852 39.4427 24.9024L38.607 25.482L41.2179 29.2462L42.0536 28.6666Z" fill="black"/>
<path d="M44.3668 20.9965L47.3353 26.5022L46.4322 26.9891L43.4637 21.4834L44.3668 20.9965Z" fill="black"/>
<path d="M52.7755 19.2822C52.5087 19.0532 52.2126 18.9201 51.8872 18.8829C51.5596 18.8401 51.2204 18.8893 50.8697 19.0304C50.4857 19.1849 50.178 19.4089 49.9469 19.7024C49.7157 19.9959 49.5777 20.336 49.5328 20.7228C49.4935 21.1072 49.5578 21.5082 49.7258 21.9257C49.8938 22.3431 50.1262 22.6797 50.4231 22.9354C50.7233 23.1832 51.0585 23.3329 51.4285 23.3845C51.7985 23.4362 52.1755 23.3847 52.5596 23.2302C53.0773 23.0219 53.4393 22.708 53.6457 22.2887C53.852 21.8693 53.8917 21.3974 53.7648 20.8729L51.5856 21.7497L51.2798 20.9899L54.4777 19.7032L54.7767 20.4463C54.8969 20.9218 54.9023 21.4015 54.793 21.8852C54.6892 22.3668 54.4746 22.8056 54.1489 23.2018C53.8266 23.5902 53.4122 23.8863 52.9056 24.0902C52.3601 24.3096 51.8116 24.3849 51.2599 24.3158C50.706 24.2412 50.2048 24.0322 49.7562 23.6888C49.3131 23.3432 48.9774 22.8865 48.7489 22.3187C48.5205 21.751 48.4464 21.189 48.5266 20.6329C48.6123 20.0745 48.8302 19.5794 49.1803 19.1475C49.5337 18.7078 49.9804 18.3793 50.5203 18.162C51.1382 17.9134 51.7481 17.8459 52.35 17.9594C52.9552 18.0652 53.4783 18.3527 53.9194 18.8219L52.7755 19.2822Z" fill="black"/>
<path d="M55.7796 16.6005L57.4517 22.6279L56.463 22.9022L54.7909 16.8748L55.7796 16.6005Z" fill="black"/>
<path d="M63.5811 15.0818L63.718 15.9076L62.0754 16.1799L62.9614 21.5249L61.9492 21.6927L61.0632 16.3476L59.4117 16.6214L59.2748 15.7956L63.5811 15.0818Z" fill="black"/>
<path d="M70.2374 19.7507L67.6201 19.8437L67.2158 21.1369L66.1454 21.175L68.1625 14.8353L69.3497 14.7931L71.8119 20.9735L70.7325 21.0119L70.2374 19.7507ZM69.9199 18.9244L68.8002 16.0554L67.8782 18.997L69.9199 18.9244Z" fill="black"/>
<path d="M74.1837 20.4622L76.2916 20.6354L76.2238 21.4606L73.0933 21.2033L73.6057 14.9693L74.6283 15.0534L74.1837 20.4622Z" fill="black"/>
<path d="M87.412 17.7175L87.1824 18.5224L84.6292 17.794L84.1231 19.5682L86.1136 20.1361L85.884 20.941L83.8934 20.3731L83.1429 23.0041L82.1562 22.7227L83.8722 16.7076L87.412 17.7175Z" fill="black"/>
<path d="M90.2886 25.6529L89.9235 22.7893L89.2009 22.4877L88.2371 24.7966L87.2903 24.4014L89.6998 18.6291L91.6931 19.4612C92.1361 19.6461 92.4775 19.8796 92.7173 20.1617C92.9626 20.4462 93.1058 20.7498 93.1466 21.0724C93.193 21.3974 93.1492 21.7204 93.0152 22.0415C92.858 22.4181 92.6039 22.7151 92.253 22.9327C91.91 23.1471 91.4883 23.2149 90.9881 23.1362L91.4181 26.1244L90.2886 25.6529ZM89.5164 21.7319L90.5629 22.1687C90.9173 22.3167 91.22 22.339 91.4712 22.2358C91.7279 22.1349 91.9186 21.9349 92.0434 21.6359C92.1682 21.3369 92.1767 21.0674 92.0689 20.8273C91.9633 20.5817 91.7306 20.3838 91.3707 20.2336L90.3242 19.7967L89.5164 21.7319Z" fill="black"/>
<path d="M96.2788 22.7045L95.3777 24.3041L97.2597 25.3642L96.8489 26.0935L94.9669 25.0334L94.0261 26.7037L96.1434 27.8962L95.7326 28.6255L92.7214 26.9294L95.7956 21.4717L98.8068 23.1678L98.396 23.897L96.2788 22.7045Z" fill="black"/>
<path d="M101.347 25.9754L100.272 27.4644L102.024 28.7281L101.535 29.4069L99.7827 28.1432L98.6612 29.6979L100.632 31.1195L100.142 31.7984L97.3395 29.7765L101.004 24.6963L103.807 26.7182L103.317 27.397L101.347 25.9754Z" fill="black"/>
<path d="M102.942 33.2086L104.517 34.621L103.964 35.2373L101.626 33.1397L105.803 28.4839L106.566 29.1691L102.942 33.2086Z" fill="black"/>
<path d="M108.542 38.4649L106.811 36.4994L105.555 37.0063L104.847 36.2025L111.029 33.7446L111.814 34.6362L108.594 40.4578L107.881 39.6473L108.542 38.4649ZM108.98 37.6956L110.49 35.0112L107.63 36.1624L108.98 37.6956Z" fill="black"/>
<path d="M112.051 45.8042L111.483 44.9504L113.658 39.7915L109.771 42.3813L109.202 41.5274L114.415 38.0545L114.984 38.9083L112.816 44.0622L116.696 41.4775L117.265 42.3313L112.051 45.8042Z" fill="black"/>
<path d="M115.274 45.3972C115.825 45.1291 116.38 45.0154 116.94 45.0561C117.503 45.1022 118.013 45.2845 118.468 45.6032C118.932 45.9246 119.291 46.3469 119.546 46.8701C119.838 47.4688 119.948 48.0724 119.877 48.6808C119.815 49.292 119.565 49.8342 119.128 50.3073L118.588 49.1988C118.814 48.9087 118.936 48.5987 118.956 48.2688C118.975 47.9389 118.902 47.6041 118.737 47.2643C118.556 46.8921 118.31 46.6011 118.001 46.3913C117.692 46.1815 117.34 46.0692 116.946 46.0544C116.554 46.045 116.151 46.1415 115.736 46.3438C115.32 46.5462 114.996 46.8044 114.762 47.1187C114.53 47.4383 114.399 47.7858 114.368 48.1612C114.343 48.5339 114.421 48.9064 114.602 49.2785C114.768 49.6184 114.987 49.8822 115.258 50.0702C115.53 50.2582 115.85 50.3527 116.217 50.3538L116.758 51.4622C116.116 51.5147 115.535 51.3772 115.015 51.0498C114.498 50.7278 114.093 50.2675 113.801 49.6688C113.544 49.1402 113.43 48.5983 113.46 48.0431C113.495 47.4853 113.668 46.9706 113.979 46.4988C114.292 46.0324 114.724 45.6652 115.274 45.3972Z" fill="black"/>
<path d="M120.694 52.2977L118.957 52.893L119.658 54.9363L118.866 55.2077L118.166 53.1644L116.352 53.7859L117.14 56.0847L116.348 56.356L115.228 53.0868L121.153 51.0557L122.274 54.325L121.482 54.5964L120.694 52.2977Z" fill="black"/>
</svg>
