<svg width="31" height="31" viewBox="0 0 31 31" fill="none" xmlns="http://www.w3.org/2000/svg">
<path d="M13.597 11.0333V13.0414H12.127V15.4958H13.597V22.7918H16.6186V15.4958H18.6457C18.6457 15.4958 18.8367 14.3189 18.9286 13.0312H16.6303V11.3541C16.6303 11.1018 16.9599 10.765 17.2865 10.765H18.9315V8.2085H16.693C13.5226 8.2085 13.597 10.6658 13.597 11.0333Z" fill="white"/>
<path d="M6.75008 3.83342C5.97653 3.83342 5.23467 4.14071 4.68769 4.68769C4.14071 5.23467 3.83342 5.97653 3.83342 6.75008V24.2501C3.83342 25.0236 4.14071 25.7655 4.68769 26.3125C5.23467 26.8595 5.97653 27.1668 6.75008 27.1668H24.2501C25.0236 27.1668 25.7655 26.8595 26.3125 26.3125C26.8595 25.7655 27.1668 25.0236 27.1668 24.2501V6.75008C27.1668 5.97653 26.8595 5.23467 26.3125 4.68769C25.7655 4.14071 25.0236 3.83342 24.2501 3.83342H6.75008ZM6.75008 0.916748H24.2501C25.7972 0.916748 27.2809 1.53133 28.3749 2.62529C29.4688 3.71925 30.0834 5.20299 30.0834 6.75008V24.2501C30.0834 25.7972 29.4688 27.2809 28.3749 28.3749C27.2809 29.4688 25.7972 30.0834 24.2501 30.0834H6.75008C5.20299 30.0834 3.71925 29.4688 2.62529 28.3749C1.53133 27.2809 0.916748 25.7972 0.916748 24.2501V6.75008C0.916748 5.20299 1.53133 3.71925 2.62529 2.62529C3.71925 1.53133 5.20299 0.916748 6.75008 0.916748V0.916748Z" fill="white"/>
</svg>
