<svg width="104" height="29" viewBox="0 0 104 29" fill="none" xmlns="http://www.w3.org/2000/svg">
<mask id="path-1-inside-1_111_115" fill="white">
<path d="M8.70416 1.67203V8.98403C8.70416 10.3387 8.34682 11.368 7.63216 12.072C6.92816 12.7654 5.93616 13.112 4.65616 13.112C3.28016 13.112 2.18682 12.7334 1.37616 11.976C0.56549 11.2187 0.160156 10.1147 0.160156 8.66403H3.66416C3.66416 9.1227 3.73882 9.44803 3.88816 9.64003C4.03749 9.82136 4.24016 9.91203 4.49616 9.91203C4.70949 9.91203 4.87482 9.8427 4.99216 9.70403C5.10949 9.56536 5.16816 9.32536 5.16816 8.98403V1.67203H8.70416Z"/>
<path d="M14.5257 13.112C13.619 13.112 12.803 12.9254 12.0777 12.552C11.3523 12.1787 10.7817 11.6454 10.3657 10.952C9.96032 10.248 9.75766 9.4267 9.75766 8.48803C9.75766 7.54936 9.96032 6.73336 10.3657 6.04003C10.7817 5.33603 11.3523 4.79736 12.0777 4.42403C12.803 4.0507 13.619 3.86403 14.5257 3.86403C15.4323 3.86403 16.2483 4.0507 16.9737 4.42403C17.699 4.79736 18.2643 5.33603 18.6697 6.04003C19.0857 6.73336 19.2937 7.54936 19.2937 8.48803C19.2937 9.4267 19.0857 10.248 18.6697 10.952C18.2643 11.6454 17.699 12.1787 16.9737 12.552C16.2483 12.9254 15.4323 13.112 14.5257 13.112ZM14.5257 10.04C14.8563 10.04 15.1337 9.91203 15.3577 9.65603C15.5817 9.38936 15.6937 9.00003 15.6937 8.48803C15.6937 7.97603 15.5817 7.59203 15.3577 7.33603C15.1337 7.06936 14.8563 6.93603 14.5257 6.93603C14.195 6.93603 13.9177 7.06936 13.6937 7.33603C13.4697 7.59203 13.3577 7.97603 13.3577 8.48803C13.3577 9.00003 13.4643 9.38936 13.6777 9.65603C13.9017 9.91203 14.1843 10.04 14.5257 10.04Z"/>
<path d="M28.6483 13.112C27.5816 13.112 26.6003 12.8614 25.7043 12.36C24.8189 11.8587 24.1149 11.1654 23.5923 10.28C23.0696 9.3947 22.8083 8.39736 22.8083 7.28803C22.8083 6.1787 23.0696 5.18136 23.5923 4.29603C24.1149 3.4107 24.8189 2.7227 25.7043 2.23203C26.6003 1.7307 27.5816 1.48003 28.6483 1.48003C29.7149 1.48003 30.6909 1.7307 31.5763 2.23203C32.4616 2.7227 33.1603 3.4107 33.6723 4.29603C34.1949 5.18136 34.4563 6.1787 34.4563 7.28803C34.4563 8.39736 34.1949 9.3947 33.6723 10.28C33.1603 11.1654 32.4563 11.8587 31.5603 12.36C30.6749 12.8614 29.7043 13.112 28.6483 13.112ZM28.6483 9.80003C29.3523 9.80003 29.8963 9.57603 30.2803 9.12803C30.6643 8.66936 30.8563 8.05603 30.8563 7.28803C30.8563 6.50936 30.6643 5.89603 30.2803 5.44803C29.8963 4.98936 29.3523 4.76003 28.6483 4.76003C27.9336 4.76003 27.3843 4.98936 27.0003 5.44803C26.6163 5.89603 26.4243 6.50936 26.4243 7.28803C26.4243 8.05603 26.6163 8.66936 27.0003 9.12803C27.3843 9.57603 27.9336 9.80003 28.6483 9.80003Z"/>
<path d="M36.6657 1.67203H40.1857L38.2977 6.39203H35.9617L36.6657 1.67203Z"/>
<path d="M48.6325 13L45.3365 8.08803V13H41.7845V1.67203H45.3365V6.44003L48.5845 1.67203H52.6005L48.6965 7.09603L52.8565 13H48.6325Z"/>
<path d="M60.1827 3.91203C61.2173 3.91203 62.0227 4.2587 62.5987 4.95203C63.1853 5.64536 63.4787 6.58403 63.4787 7.76803V13H59.9427V8.21603C59.9427 7.78936 59.8253 7.45336 59.5907 7.20803C59.3667 6.95203 59.0627 6.82403 58.6787 6.82403C58.284 6.82403 57.9747 6.95203 57.7507 7.20803C57.5267 7.45336 57.4147 7.78936 57.4147 8.21603V13H53.8627V1.16003H57.4147V5.35203C57.692 4.92536 58.06 4.5787 58.5187 4.31203C58.988 4.04536 59.5427 3.91203 60.1827 3.91203Z"/>
<path d="M64.5389 8.48803C64.5389 7.5387 64.6989 6.71736 65.0189 6.02403C65.3496 5.32003 65.7976 4.7867 66.3629 4.42403C66.9282 4.0507 67.5629 3.86403 68.2669 3.86403C68.8536 3.86403 69.3602 3.98669 69.7869 4.23203C70.2136 4.46669 70.5389 4.79203 70.7629 5.20803V3.97603H74.2989V13H70.7629V11.768C70.5389 12.184 70.2136 12.5147 69.7869 12.76C69.3602 12.9947 68.8536 13.112 68.2669 13.112C67.5629 13.112 66.9282 12.9307 66.3629 12.568C65.7976 12.1947 65.3496 11.6614 65.0189 10.968C64.6989 10.264 64.5389 9.43736 64.5389 8.48803ZM70.7629 8.48803C70.7629 8.00803 70.6402 7.6347 70.3949 7.36803C70.1496 7.10136 69.8349 6.96803 69.4509 6.96803C69.0669 6.96803 68.7522 7.10136 68.5069 7.36803C68.2616 7.6347 68.1389 8.00803 68.1389 8.48803C68.1389 8.96803 68.2616 9.34136 68.5069 9.60803C68.7522 9.8747 69.0669 10.008 69.4509 10.008C69.8349 10.008 70.1496 9.8747 70.3949 9.60803C70.6402 9.34136 70.7629 8.96803 70.7629 8.48803Z"/>
<path d="M81.0939 3.33603C80.9019 3.3147 80.7686 3.30403 80.6939 3.30403C80.4272 3.30403 80.2246 3.35736 80.0859 3.46403C79.9472 3.56003 79.8512 3.7307 79.7979 3.97603H81.0939V6.93603H79.7659V13H76.2139V6.93603H75.2539V3.97603H76.2139C76.2352 2.8027 76.6032 1.89603 77.3179 1.25603C78.0432 0.605363 79.0566 0.280029 80.3579 0.280029C80.5072 0.280029 80.7526 0.290696 81.0939 0.312029V3.33603Z"/>
<path d="M86.3382 13.112C85.4315 13.112 84.6155 12.9254 83.8902 12.552C83.1648 12.1787 82.5942 11.6454 82.1782 10.952C81.7728 10.248 81.5702 9.4267 81.5702 8.48803C81.5702 7.54936 81.7728 6.73336 82.1782 6.04003C82.5942 5.33603 83.1648 4.79736 83.8902 4.42403C84.6155 4.0507 85.4315 3.86403 86.3382 3.86403C87.2448 3.86403 88.0608 4.0507 88.7862 4.42403C89.5115 4.79736 90.0768 5.33603 90.4822 6.04003C90.8982 6.73336 91.1062 7.54936 91.1062 8.48803C91.1062 9.4267 90.8982 10.248 90.4822 10.952C90.0768 11.6454 89.5115 12.1787 88.7862 12.552C88.0608 12.9254 87.2448 13.112 86.3382 13.112ZM86.3382 10.04C86.6688 10.04 86.9462 9.91203 87.1702 9.65603C87.3942 9.38936 87.5061 9.00003 87.5061 8.48803C87.5061 7.97603 87.3942 7.59203 87.1702 7.33603C86.9462 7.06936 86.6688 6.93603 86.3382 6.93603C86.0075 6.93603 85.7301 7.06936 85.5061 7.33603C85.2821 7.59203 85.1702 7.97603 85.1702 8.48803C85.1702 9.00003 85.2768 9.38936 85.4902 9.65603C85.7142 9.91203 85.9968 10.04 86.3382 10.04Z"/>
<path d="M95.774 5.64003C96.1367 5.11736 96.5794 4.70136 97.102 4.39203C97.6247 4.07203 98.1687 3.91203 98.734 3.91203V7.70403H97.726C97.054 7.70403 96.558 7.82136 96.238 8.05603C95.9287 8.2907 95.774 8.7067 95.774 9.30403V13H92.222V3.97603H95.774V5.64003Z"/>
<path d="M101.451 13.128C100.832 13.128 100.336 12.9627 99.9628 12.632C99.5894 12.3014 99.4028 11.8854 99.4028 11.384C99.4028 10.872 99.5894 10.4507 99.9628 10.12C100.336 9.7787 100.832 9.60803 101.451 9.60803C102.059 9.60803 102.549 9.7787 102.923 10.12C103.296 10.4507 103.483 10.872 103.483 11.384C103.483 11.8854 103.296 12.3014 102.923 12.632C102.549 12.9627 102.059 13.128 101.451 13.128Z"/>
</mask>
<path d="M8.70416 1.67203V8.98403C8.70416 10.3387 8.34682 11.368 7.63216 12.072C6.92816 12.7654 5.93616 13.112 4.65616 13.112C3.28016 13.112 2.18682 12.7334 1.37616 11.976C0.56549 11.2187 0.160156 10.1147 0.160156 8.66403H3.66416C3.66416 9.1227 3.73882 9.44803 3.88816 9.64003C4.03749 9.82136 4.24016 9.91203 4.49616 9.91203C4.70949 9.91203 4.87482 9.8427 4.99216 9.70403C5.10949 9.56536 5.16816 9.32536 5.16816 8.98403V1.67203H8.70416Z" fill="black"/>
<path d="M14.5257 13.112C13.619 13.112 12.803 12.9254 12.0777 12.552C11.3523 12.1787 10.7817 11.6454 10.3657 10.952C9.96032 10.248 9.75766 9.4267 9.75766 8.48803C9.75766 7.54936 9.96032 6.73336 10.3657 6.04003C10.7817 5.33603 11.3523 4.79736 12.0777 4.42403C12.803 4.0507 13.619 3.86403 14.5257 3.86403C15.4323 3.86403 16.2483 4.0507 16.9737 4.42403C17.699 4.79736 18.2643 5.33603 18.6697 6.04003C19.0857 6.73336 19.2937 7.54936 19.2937 8.48803C19.2937 9.4267 19.0857 10.248 18.6697 10.952C18.2643 11.6454 17.699 12.1787 16.9737 12.552C16.2483 12.9254 15.4323 13.112 14.5257 13.112ZM14.5257 10.04C14.8563 10.04 15.1337 9.91203 15.3577 9.65603C15.5817 9.38936 15.6937 9.00003 15.6937 8.48803C15.6937 7.97603 15.5817 7.59203 15.3577 7.33603C15.1337 7.06936 14.8563 6.93603 14.5257 6.93603C14.195 6.93603 13.9177 7.06936 13.6937 7.33603C13.4697 7.59203 13.3577 7.97603 13.3577 8.48803C13.3577 9.00003 13.4643 9.38936 13.6777 9.65603C13.9017 9.91203 14.1843 10.04 14.5257 10.04Z" fill="black"/>
<path d="M28.6483 13.112C27.5816 13.112 26.6003 12.8614 25.7043 12.36C24.8189 11.8587 24.1149 11.1654 23.5923 10.28C23.0696 9.3947 22.8083 8.39736 22.8083 7.28803C22.8083 6.1787 23.0696 5.18136 23.5923 4.29603C24.1149 3.4107 24.8189 2.7227 25.7043 2.23203C26.6003 1.7307 27.5816 1.48003 28.6483 1.48003C29.7149 1.48003 30.6909 1.7307 31.5763 2.23203C32.4616 2.7227 33.1603 3.4107 33.6723 4.29603C34.1949 5.18136 34.4563 6.1787 34.4563 7.28803C34.4563 8.39736 34.1949 9.3947 33.6723 10.28C33.1603 11.1654 32.4563 11.8587 31.5603 12.36C30.6749 12.8614 29.7043 13.112 28.6483 13.112ZM28.6483 9.80003C29.3523 9.80003 29.8963 9.57603 30.2803 9.12803C30.6643 8.66936 30.8563 8.05603 30.8563 7.28803C30.8563 6.50936 30.6643 5.89603 30.2803 5.44803C29.8963 4.98936 29.3523 4.76003 28.6483 4.76003C27.9336 4.76003 27.3843 4.98936 27.0003 5.44803C26.6163 5.89603 26.4243 6.50936 26.4243 7.28803C26.4243 8.05603 26.6163 8.66936 27.0003 9.12803C27.3843 9.57603 27.9336 9.80003 28.6483 9.80003Z" fill="black"/>
<path d="M36.6657 1.67203H40.1857L38.2977 6.39203H35.9617L36.6657 1.67203Z" fill="black"/>
<path d="M48.6325 13L45.3365 8.08803V13H41.7845V1.67203H45.3365V6.44003L48.5845 1.67203H52.6005L48.6965 7.09603L52.8565 13H48.6325Z" fill="black"/>
<path d="M60.1827 3.91203C61.2173 3.91203 62.0227 4.2587 62.5987 4.95203C63.1853 5.64536 63.4787 6.58403 63.4787 7.76803V13H59.9427V8.21603C59.9427 7.78936 59.8253 7.45336 59.5907 7.20803C59.3667 6.95203 59.0627 6.82403 58.6787 6.82403C58.284 6.82403 57.9747 6.95203 57.7507 7.20803C57.5267 7.45336 57.4147 7.78936 57.4147 8.21603V13H53.8627V1.16003H57.4147V5.35203C57.692 4.92536 58.06 4.5787 58.5187 4.31203C58.988 4.04536 59.5427 3.91203 60.1827 3.91203Z" fill="black"/>
<path d="M64.5389 8.48803C64.5389 7.5387 64.6989 6.71736 65.0189 6.02403C65.3496 5.32003 65.7976 4.7867 66.3629 4.42403C66.9282 4.0507 67.5629 3.86403 68.2669 3.86403C68.8536 3.86403 69.3602 3.98669 69.7869 4.23203C70.2136 4.46669 70.5389 4.79203 70.7629 5.20803V3.97603H74.2989V13H70.7629V11.768C70.5389 12.184 70.2136 12.5147 69.7869 12.76C69.3602 12.9947 68.8536 13.112 68.2669 13.112C67.5629 13.112 66.9282 12.9307 66.3629 12.568C65.7976 12.1947 65.3496 11.6614 65.0189 10.968C64.6989 10.264 64.5389 9.43736 64.5389 8.48803ZM70.7629 8.48803C70.7629 8.00803 70.6402 7.6347 70.3949 7.36803C70.1496 7.10136 69.8349 6.96803 69.4509 6.96803C69.0669 6.96803 68.7522 7.10136 68.5069 7.36803C68.2616 7.6347 68.1389 8.00803 68.1389 8.48803C68.1389 8.96803 68.2616 9.34136 68.5069 9.60803C68.7522 9.8747 69.0669 10.008 69.4509 10.008C69.8349 10.008 70.1496 9.8747 70.3949 9.60803C70.6402 9.34136 70.7629 8.96803 70.7629 8.48803Z" fill="black"/>
<path d="M81.0939 3.33603C80.9019 3.3147 80.7686 3.30403 80.6939 3.30403C80.4272 3.30403 80.2246 3.35736 80.0859 3.46403C79.9472 3.56003 79.8512 3.7307 79.7979 3.97603H81.0939V6.93603H79.7659V13H76.2139V6.93603H75.2539V3.97603H76.2139C76.2352 2.8027 76.6032 1.89603 77.3179 1.25603C78.0432 0.605363 79.0566 0.280029 80.3579 0.280029C80.5072 0.280029 80.7526 0.290696 81.0939 0.312029V3.33603Z" fill="black"/>
<path d="M86.3382 13.112C85.4315 13.112 84.6155 12.9254 83.8902 12.552C83.1648 12.1787 82.5942 11.6454 82.1782 10.952C81.7728 10.248 81.5702 9.4267 81.5702 8.48803C81.5702 7.54936 81.7728 6.73336 82.1782 6.04003C82.5942 5.33603 83.1648 4.79736 83.8902 4.42403C84.6155 4.0507 85.4315 3.86403 86.3382 3.86403C87.2448 3.86403 88.0608 4.0507 88.7862 4.42403C89.5115 4.79736 90.0768 5.33603 90.4822 6.04003C90.8982 6.73336 91.1062 7.54936 91.1062 8.48803C91.1062 9.4267 90.8982 10.248 90.4822 10.952C90.0768 11.6454 89.5115 12.1787 88.7862 12.552C88.0608 12.9254 87.2448 13.112 86.3382 13.112ZM86.3382 10.04C86.6688 10.04 86.9462 9.91203 87.1702 9.65603C87.3942 9.38936 87.5061 9.00003 87.5061 8.48803C87.5061 7.97603 87.3942 7.59203 87.1702 7.33603C86.9462 7.06936 86.6688 6.93603 86.3382 6.93603C86.0075 6.93603 85.7301 7.06936 85.5061 7.33603C85.2821 7.59203 85.1702 7.97603 85.1702 8.48803C85.1702 9.00003 85.2768 9.38936 85.4902 9.65603C85.7142 9.91203 85.9968 10.04 86.3382 10.04Z" fill="black"/>
<path d="M95.774 5.64003C96.1367 5.11736 96.5794 4.70136 97.102 4.39203C97.6247 4.07203 98.1687 3.91203 98.734 3.91203V7.70403H97.726C97.054 7.70403 96.558 7.82136 96.238 8.05603C95.9287 8.2907 95.774 8.7067 95.774 9.30403V13H92.222V3.97603H95.774V5.64003Z" fill="black"/>
<path d="M101.451 13.128C100.832 13.128 100.336 12.9627 99.9628 12.632C99.5894 12.3014 99.4028 11.8854 99.4028 11.384C99.4028 10.872 99.5894 10.4507 99.9628 10.12C100.336 9.7787 100.832 9.60803 101.451 9.60803C102.059 9.60803 102.549 9.7787 102.923 10.12C103.296 10.4507 103.483 10.872 103.483 11.384C103.483 11.8854 103.296 12.3014 102.923 12.632C102.549 12.9627 102.059 13.128 101.451 13.128Z" fill="black"/>
<path d="M8.70416 1.67203V8.98403C8.70416 10.3387 8.34682 11.368 7.63216 12.072C6.92816 12.7654 5.93616 13.112 4.65616 13.112C3.28016 13.112 2.18682 12.7334 1.37616 11.976C0.56549 11.2187 0.160156 10.1147 0.160156 8.66403H3.66416C3.66416 9.1227 3.73882 9.44803 3.88816 9.64003C4.03749 9.82136 4.24016 9.91203 4.49616 9.91203C4.70949 9.91203 4.87482 9.8427 4.99216 9.70403C5.10949 9.56536 5.16816 9.32536 5.16816 8.98403V1.67203H8.70416Z" stroke="black" stroke-width="2" mask="url(#path-1-inside-1_111_115)"/>
<path d="M14.5257 13.112C13.619 13.112 12.803 12.9254 12.0777 12.552C11.3523 12.1787 10.7817 11.6454 10.3657 10.952C9.96032 10.248 9.75766 9.4267 9.75766 8.48803C9.75766 7.54936 9.96032 6.73336 10.3657 6.04003C10.7817 5.33603 11.3523 4.79736 12.0777 4.42403C12.803 4.0507 13.619 3.86403 14.5257 3.86403C15.4323 3.86403 16.2483 4.0507 16.9737 4.42403C17.699 4.79736 18.2643 5.33603 18.6697 6.04003C19.0857 6.73336 19.2937 7.54936 19.2937 8.48803C19.2937 9.4267 19.0857 10.248 18.6697 10.952C18.2643 11.6454 17.699 12.1787 16.9737 12.552C16.2483 12.9254 15.4323 13.112 14.5257 13.112ZM14.5257 10.04C14.8563 10.04 15.1337 9.91203 15.3577 9.65603C15.5817 9.38936 15.6937 9.00003 15.6937 8.48803C15.6937 7.97603 15.5817 7.59203 15.3577 7.33603C15.1337 7.06936 14.8563 6.93603 14.5257 6.93603C14.195 6.93603 13.9177 7.06936 13.6937 7.33603C13.4697 7.59203 13.3577 7.97603 13.3577 8.48803C13.3577 9.00003 13.4643 9.38936 13.6777 9.65603C13.9017 9.91203 14.1843 10.04 14.5257 10.04Z" stroke="black" stroke-width="2" mask="url(#path-1-inside-1_111_115)"/>
<path d="M28.6483 13.112C27.5816 13.112 26.6003 12.8614 25.7043 12.36C24.8189 11.8587 24.1149 11.1654 23.5923 10.28C23.0696 9.3947 22.8083 8.39736 22.8083 7.28803C22.8083 6.1787 23.0696 5.18136 23.5923 4.29603C24.1149 3.4107 24.8189 2.7227 25.7043 2.23203C26.6003 1.7307 27.5816 1.48003 28.6483 1.48003C29.7149 1.48003 30.6909 1.7307 31.5763 2.23203C32.4616 2.7227 33.1603 3.4107 33.6723 4.29603C34.1949 5.18136 34.4563 6.1787 34.4563 7.28803C34.4563 8.39736 34.1949 9.3947 33.6723 10.28C33.1603 11.1654 32.4563 11.8587 31.5603 12.36C30.6749 12.8614 29.7043 13.112 28.6483 13.112ZM28.6483 9.80003C29.3523 9.80003 29.8963 9.57603 30.2803 9.12803C30.6643 8.66936 30.8563 8.05603 30.8563 7.28803C30.8563 6.50936 30.6643 5.89603 30.2803 5.44803C29.8963 4.98936 29.3523 4.76003 28.6483 4.76003C27.9336 4.76003 27.3843 4.98936 27.0003 5.44803C26.6163 5.89603 26.4243 6.50936 26.4243 7.28803C26.4243 8.05603 26.6163 8.66936 27.0003 9.12803C27.3843 9.57603 27.9336 9.80003 28.6483 9.80003Z" stroke="black" stroke-width="2" mask="url(#path-1-inside-1_111_115)"/>
<path d="M36.6657 1.67203H40.1857L38.2977 6.39203H35.9617L36.6657 1.67203Z" stroke="black" stroke-width="2" mask="url(#path-1-inside-1_111_115)"/>
<path d="M48.6325 13L45.3365 8.08803V13H41.7845V1.67203H45.3365V6.44003L48.5845 1.67203H52.6005L48.6965 7.09603L52.8565 13H48.6325Z" stroke="black" stroke-width="2" mask="url(#path-1-inside-1_111_115)"/>
<path d="M60.1827 3.91203C61.2173 3.91203 62.0227 4.2587 62.5987 4.95203C63.1853 5.64536 63.4787 6.58403 63.4787 7.76803V13H59.9427V8.21603C59.9427 7.78936 59.8253 7.45336 59.5907 7.20803C59.3667 6.95203 59.0627 6.82403 58.6787 6.82403C58.284 6.82403 57.9747 6.95203 57.7507 7.20803C57.5267 7.45336 57.4147 7.78936 57.4147 8.21603V13H53.8627V1.16003H57.4147V5.35203C57.692 4.92536 58.06 4.5787 58.5187 4.31203C58.988 4.04536 59.5427 3.91203 60.1827 3.91203Z" stroke="black" stroke-width="2" mask="url(#path-1-inside-1_111_115)"/>
<path d="M64.5389 8.48803C64.5389 7.5387 64.6989 6.71736 65.0189 6.02403C65.3496 5.32003 65.7976 4.7867 66.3629 4.42403C66.9282 4.0507 67.5629 3.86403 68.2669 3.86403C68.8536 3.86403 69.3602 3.98669 69.7869 4.23203C70.2136 4.46669 70.5389 4.79203 70.7629 5.20803V3.97603H74.2989V13H70.7629V11.768C70.5389 12.184 70.2136 12.5147 69.7869 12.76C69.3602 12.9947 68.8536 13.112 68.2669 13.112C67.5629 13.112 66.9282 12.9307 66.3629 12.568C65.7976 12.1947 65.3496 11.6614 65.0189 10.968C64.6989 10.264 64.5389 9.43736 64.5389 8.48803ZM70.7629 8.48803C70.7629 8.00803 70.6402 7.6347 70.3949 7.36803C70.1496 7.10136 69.8349 6.96803 69.4509 6.96803C69.0669 6.96803 68.7522 7.10136 68.5069 7.36803C68.2616 7.6347 68.1389 8.00803 68.1389 8.48803C68.1389 8.96803 68.2616 9.34136 68.5069 9.60803C68.7522 9.8747 69.0669 10.008 69.4509 10.008C69.8349 10.008 70.1496 9.8747 70.3949 9.60803C70.6402 9.34136 70.7629 8.96803 70.7629 8.48803Z" stroke="black" stroke-width="2" mask="url(#path-1-inside-1_111_115)"/>
<path d="M81.0939 3.33603C80.9019 3.3147 80.7686 3.30403 80.6939 3.30403C80.4272 3.30403 80.2246 3.35736 80.0859 3.46403C79.9472 3.56003 79.8512 3.7307 79.7979 3.97603H81.0939V6.93603H79.7659V13H76.2139V6.93603H75.2539V3.97603H76.2139C76.2352 2.8027 76.6032 1.89603 77.3179 1.25603C78.0432 0.605363 79.0566 0.280029 80.3579 0.280029C80.5072 0.280029 80.7526 0.290696 81.0939 0.312029V3.33603Z" stroke="black" stroke-width="2" mask="url(#path-1-inside-1_111_115)"/>
<path d="M86.3382 13.112C85.4315 13.112 84.6155 12.9254 83.8902 12.552C83.1648 12.1787 82.5942 11.6454 82.1782 10.952C81.7728 10.248 81.5702 9.4267 81.5702 8.48803C81.5702 7.54936 81.7728 6.73336 82.1782 6.04003C82.5942 5.33603 83.1648 4.79736 83.8902 4.42403C84.6155 4.0507 85.4315 3.86403 86.3382 3.86403C87.2448 3.86403 88.0608 4.0507 88.7862 4.42403C89.5115 4.79736 90.0768 5.33603 90.4822 6.04003C90.8982 6.73336 91.1062 7.54936 91.1062 8.48803C91.1062 9.4267 90.8982 10.248 90.4822 10.952C90.0768 11.6454 89.5115 12.1787 88.7862 12.552C88.0608 12.9254 87.2448 13.112 86.3382 13.112ZM86.3382 10.04C86.6688 10.04 86.9462 9.91203 87.1702 9.65603C87.3942 9.38936 87.5061 9.00003 87.5061 8.48803C87.5061 7.97603 87.3942 7.59203 87.1702 7.33603C86.9462 7.06936 86.6688 6.93603 86.3382 6.93603C86.0075 6.93603 85.7301 7.06936 85.5061 7.33603C85.2821 7.59203 85.1702 7.97603 85.1702 8.48803C85.1702 9.00003 85.2768 9.38936 85.4902 9.65603C85.7142 9.91203 85.9968 10.04 86.3382 10.04Z" stroke="black" stroke-width="2" mask="url(#path-1-inside-1_111_115)"/>
<path d="M95.774 5.64003C96.1367 5.11736 96.5794 4.70136 97.102 4.39203C97.6247 4.07203 98.1687 3.91203 98.734 3.91203V7.70403H97.726C97.054 7.70403 96.558 7.82136 96.238 8.05603C95.9287 8.2907 95.774 8.7067 95.774 9.30403V13H92.222V3.97603H95.774V5.64003Z" stroke="black" stroke-width="2" mask="url(#path-1-inside-1_111_115)"/>
<path d="M101.451 13.128C100.832 13.128 100.336 12.9627 99.9628 12.632C99.5894 12.3014 99.4028 11.8854 99.4028 11.384C99.4028 10.872 99.5894 10.4507 99.9628 10.12C100.336 9.7787 100.832 9.60803 101.451 9.60803C102.059 9.60803 102.549 9.7787 102.923 10.12C103.296 10.4507 103.483 10.872 103.483 11.384C103.483 11.8854 103.296 12.3014 102.923 12.632C102.549 12.9627 102.059 13.128 101.451 13.128Z" stroke="black" stroke-width="2" mask="url(#path-1-inside-1_111_115)"/>
<mask id="path-2-inside-2_111_115" fill="white">
<path d="M3.02 18.9858C3.76 18.9858 4.40667 19.1292 4.96 19.4158C5.52 19.6958 5.95 20.1025 6.25 20.6358C6.55667 21.1625 6.71 21.7792 6.71 22.4858C6.71 23.1925 6.55667 23.8058 6.25 24.3258C5.95 24.8458 5.52 25.2458 4.96 25.5258C4.40667 25.7992 3.76 25.9358 3.02 25.9358H0.75V18.9858H3.02ZM3.02 25.0058C3.83333 25.0058 4.45667 24.7858 4.89 24.3458C5.32333 23.9058 5.54 23.2858 5.54 22.4858C5.54 21.6792 5.32333 21.0492 4.89 20.5958C4.45667 20.1425 3.83333 19.9158 3.02 19.9158H1.89V25.0058H3.02Z"/>
<path d="M8.41984 19.6958C8.21318 19.6958 8.03984 19.6258 7.89984 19.4858C7.75984 19.3458 7.68984 19.1725 7.68984 18.9658C7.68984 18.7592 7.75984 18.5858 7.89984 18.4458C8.03984 18.3058 8.21318 18.2358 8.41984 18.2358C8.61984 18.2358 8.78984 18.3058 8.92984 18.4458C9.06984 18.5858 9.13984 18.7592 9.13984 18.9658C9.13984 19.1725 9.06984 19.3458 8.92984 19.4858C8.78984 19.6258 8.61984 19.6958 8.41984 19.6958ZM8.97984 20.4258V25.9358H7.83984V20.4258H8.97984Z"/>
<path d="M12.6966 20.3358C13.1232 20.3358 13.4999 20.4225 13.8266 20.5958C14.1599 20.7625 14.4199 20.9725 14.6066 21.2258V20.4258H15.7566V26.0258C15.7566 26.5325 15.6499 26.9825 15.4366 27.3758C15.2232 27.7758 14.9132 28.0892 14.5066 28.3158C14.1066 28.5425 13.6266 28.6558 13.0666 28.6558C12.3199 28.6558 11.6999 28.4792 11.2066 28.1258C10.7132 27.7792 10.4332 27.3058 10.3666 26.7058H11.4966C11.5832 26.9925 11.7666 27.2225 12.0466 27.3958C12.3332 27.5758 12.6732 27.6658 13.0666 27.6658C13.5266 27.6658 13.8966 27.5258 14.1766 27.2458C14.4632 26.9658 14.6066 26.5592 14.6066 26.0258V25.1058C14.4132 25.3658 14.1499 25.5858 13.8166 25.7658C13.4899 25.9392 13.1166 26.0258 12.6966 26.0258C12.2166 26.0258 11.7766 25.9058 11.3766 25.6658C10.9832 25.4192 10.6699 25.0792 10.4366 24.6458C10.2099 24.2058 10.0966 23.7092 10.0966 23.1558C10.0966 22.6025 10.2099 22.1125 10.4366 21.6858C10.6699 21.2592 10.9832 20.9292 11.3766 20.6958C11.7766 20.4558 12.2166 20.3358 12.6966 20.3358ZM14.6066 23.1758C14.6066 22.7958 14.5266 22.4658 14.3666 22.1858C14.2132 21.9058 14.0099 21.6925 13.7566 21.5458C13.5032 21.3992 13.2299 21.3258 12.9366 21.3258C12.6432 21.3258 12.3699 21.3992 12.1166 21.5458C11.8632 21.6858 11.6566 21.8958 11.4966 22.1758C11.3432 22.4492 11.2666 22.7758 11.2666 23.1558C11.2666 23.5358 11.3432 23.8692 11.4966 24.1558C11.6566 24.4425 11.8632 24.6625 12.1166 24.8158C12.3766 24.9625 12.6499 25.0358 12.9366 25.0358C13.2299 25.0358 13.5032 24.9625 13.7566 24.8158C14.0099 24.6692 14.2132 24.4558 14.3666 24.1758C14.5266 23.8892 14.6066 23.5558 14.6066 23.1758Z"/>
<path d="M17.8339 19.6958C17.6272 19.6958 17.4539 19.6258 17.3139 19.4858C17.1739 19.3458 17.1039 19.1725 17.1039 18.9658C17.1039 18.7592 17.1739 18.5858 17.3139 18.4458C17.4539 18.3058 17.6272 18.2358 17.8339 18.2358C18.0339 18.2358 18.2039 18.3058 18.3439 18.4458C18.4839 18.5858 18.5539 18.7592 18.5539 18.9658C18.5539 19.1725 18.4839 19.3458 18.3439 19.4858C18.2039 19.6258 18.0339 19.6958 17.8339 19.6958ZM18.3939 20.4258V25.9358H17.2539V20.4258H18.3939Z"/>
<path d="M21.2206 21.3558V24.4058C21.2206 24.6125 21.2673 24.7625 21.3606 24.8558C21.4606 24.9425 21.6273 24.9858 21.8606 24.9858H22.5606V25.9358H21.6606C21.1473 25.9358 20.754 25.8158 20.4806 25.5758C20.2073 25.3358 20.0706 24.9458 20.0706 24.4058V21.3558H19.4206V20.4258H20.0706V19.0558H21.2206V20.4258H22.5606V21.3558H21.2206Z"/>
<path d="M23.2313 23.1558C23.2313 22.6025 23.3447 22.1125 23.5713 21.6858C23.8047 21.2592 24.118 20.9292 24.5113 20.6958C24.9113 20.4558 25.3513 20.3358 25.8313 20.3358C26.2647 20.3358 26.6413 20.4225 26.9613 20.5958C27.288 20.7625 27.548 20.9725 27.7413 21.2258V20.4258H28.8913V25.9358H27.7413V25.1158C27.548 25.3758 27.2847 25.5925 26.9513 25.7658C26.618 25.9392 26.238 26.0258 25.8113 26.0258C25.338 26.0258 24.9047 25.9058 24.5113 25.6658C24.118 25.4192 23.8047 25.0792 23.5713 24.6458C23.3447 24.2058 23.2313 23.7092 23.2313 23.1558ZM27.7413 23.1758C27.7413 22.7958 27.6613 22.4658 27.5013 22.1858C27.348 21.9058 27.1447 21.6925 26.8913 21.5458C26.638 21.3992 26.3647 21.3258 26.0713 21.3258C25.778 21.3258 25.5047 21.3992 25.2513 21.5458C24.998 21.6858 24.7913 21.8958 24.6313 22.1758C24.478 22.4492 24.4013 22.7758 24.4013 23.1558C24.4013 23.5358 24.478 23.8692 24.6313 24.1558C24.7913 24.4425 24.998 24.6625 25.2513 24.8158C25.5113 24.9625 25.7847 25.0358 26.0713 25.0358C26.3647 25.0358 26.638 24.9625 26.8913 24.8158C27.1447 24.6692 27.348 24.4558 27.5013 24.1758C27.6613 23.8892 27.7413 23.5558 27.7413 23.1758Z"/>
<path d="M31.5287 18.5358V25.9358H30.3887V18.5358H31.5287Z"/>
<path d="M37.933 21.3558H36.913V25.9358H35.763V21.3558H35.113V20.4258H35.763V20.0358C35.763 19.4025 35.9297 18.9425 36.263 18.6558C36.603 18.3625 37.133 18.2158 37.853 18.2158V19.1658C37.5064 19.1658 37.263 19.2325 37.123 19.3658C36.983 19.4925 36.913 19.7158 36.913 20.0358V20.4258H37.933V21.3558Z"/>
<path d="M40.0834 21.2258C40.25 20.9458 40.47 20.7292 40.7434 20.5758C41.0234 20.4158 41.3534 20.3358 41.7334 20.3358V21.5158H41.4434C40.9967 21.5158 40.6567 21.6292 40.4234 21.8558C40.1967 22.0825 40.0834 22.4758 40.0834 23.0358V25.9358H38.9434V20.4258H40.0834V21.2258Z"/>
<path d="M47.8312 23.0458C47.8312 23.2525 47.8179 23.4392 47.7913 23.6058H43.5812C43.6146 24.0458 43.7779 24.3992 44.0713 24.6658C44.3646 24.9325 44.7246 25.0658 45.1512 25.0658C45.7646 25.0658 46.1979 24.8092 46.4513 24.2958H47.6813C47.5146 24.8025 47.2113 25.2192 46.7713 25.5458C46.3379 25.8658 45.7979 26.0258 45.1512 26.0258C44.6246 26.0258 44.1513 25.9092 43.7313 25.6758C43.3179 25.4358 42.9913 25.1025 42.7513 24.6758C42.5179 24.2425 42.4012 23.7425 42.4012 23.1758C42.4012 22.6092 42.5146 22.1125 42.7412 21.6858C42.9746 21.2525 43.2979 20.9192 43.7113 20.6858C44.1313 20.4525 44.6112 20.3358 45.1512 20.3358C45.6712 20.3358 46.1346 20.4492 46.5413 20.6758C46.9479 20.9025 47.2646 21.2225 47.4912 21.6358C47.7179 22.0425 47.8312 22.5125 47.8312 23.0458ZM46.6413 22.6858C46.6346 22.2658 46.4846 21.9292 46.1912 21.6758C45.8979 21.4225 45.5346 21.2958 45.1012 21.2958C44.7079 21.2958 44.3713 21.4225 44.0913 21.6758C43.8113 21.9225 43.6446 22.2592 43.5913 22.6858H46.6413Z"/>
<path d="M54.0031 23.0458C54.0031 23.2525 53.9898 23.4392 53.9631 23.6058H49.7531C49.7865 24.0458 49.9498 24.3992 50.2431 24.6658C50.5365 24.9325 50.8965 25.0658 51.3231 25.0658C51.9365 25.0658 52.3698 24.8092 52.6231 24.2958H53.8531C53.6865 24.8025 53.3831 25.2192 52.9431 25.5458C52.5098 25.8658 51.9698 26.0258 51.3231 26.0258C50.7965 26.0258 50.3231 25.9092 49.9031 25.6758C49.4898 25.4358 49.1631 25.1025 48.9231 24.6758C48.6898 24.2425 48.5731 23.7425 48.5731 23.1758C48.5731 22.6092 48.6865 22.1125 48.9131 21.6858C49.1465 21.2525 49.4698 20.9192 49.8831 20.6858C50.3031 20.4525 50.7831 20.3358 51.3231 20.3358C51.8431 20.3358 52.3065 20.4492 52.7131 20.6758C53.1198 20.9025 53.4365 21.2225 53.6631 21.6358C53.8898 22.0425 54.0031 22.5125 54.0031 23.0458ZM52.8131 22.6858C52.8065 22.2658 52.6565 21.9292 52.3631 21.6758C52.0698 21.4225 51.7065 21.2958 51.2731 21.2958C50.8798 21.2958 50.5431 21.4225 50.2631 21.6758C49.9831 21.9225 49.8165 22.2592 49.7631 22.6858H52.8131Z"/>
<path d="M56.265 18.5358V25.9358H55.125V18.5358H56.265Z"/>
<path d="M57.3817 23.1558C57.3817 22.6025 57.4951 22.1125 57.7217 21.6858C57.9551 21.2592 58.2684 20.9292 58.6617 20.6958C59.0617 20.4558 59.5017 20.3358 59.9817 20.3358C60.4151 20.3358 60.7917 20.4225 61.1117 20.5958C61.4384 20.7625 61.6984 20.9725 61.8917 21.2258V20.4258H63.0417V25.9358H61.8917V25.1158C61.6984 25.3758 61.4351 25.5925 61.1017 25.7658C60.7684 25.9392 60.3884 26.0258 59.9617 26.0258C59.4884 26.0258 59.0551 25.9058 58.6617 25.6658C58.2684 25.4192 57.9551 25.0792 57.7217 24.6458C57.4951 24.2058 57.3817 23.7092 57.3817 23.1558ZM61.8917 23.1758C61.8917 22.7958 61.8117 22.4658 61.6517 22.1858C61.4984 21.9058 61.2951 21.6925 61.0417 21.5458C60.7884 21.3992 60.5151 21.3258 60.2217 21.3258C59.9284 21.3258 59.6551 21.3992 59.4017 21.5458C59.1484 21.6858 58.9417 21.8958 58.7817 22.1758C58.6284 22.4492 58.5517 22.7758 58.5517 23.1558C58.5517 23.5358 58.6284 23.8692 58.7817 24.1558C58.9417 24.4425 59.1484 24.6625 59.4017 24.8158C59.6617 24.9625 59.9351 25.0358 60.2217 25.0358C60.5151 25.0358 60.7884 24.9625 61.0417 24.8158C61.2951 24.6692 61.4984 24.4558 61.6517 24.1758C61.8117 23.8892 61.8917 23.5558 61.8917 23.1758Z"/>
<path d="M67.3191 20.3358C67.7524 20.3358 68.1391 20.4258 68.4791 20.6058C68.8257 20.7858 69.0957 21.0525 69.2891 21.4058C69.4824 21.7592 69.5791 22.1858 69.5791 22.6858V25.9358H68.4491V22.8558C68.4491 22.3625 68.3257 21.9858 68.0791 21.7258C67.8324 21.4592 67.4957 21.3258 67.0691 21.3258C66.6424 21.3258 66.3024 21.4592 66.0491 21.7258C65.8024 21.9858 65.6791 22.3625 65.6791 22.8558V25.9358H64.5391V20.4258H65.6791V21.0558C65.8657 20.8292 66.1024 20.6525 66.3891 20.5258C66.6824 20.3992 66.9924 20.3358 67.3191 20.3358Z"/>
<path d="M70.6532 23.1758C70.6532 22.6092 70.7665 22.1125 70.9932 21.6858C71.2265 21.2525 71.5465 20.9192 71.9532 20.6858C72.3599 20.4525 72.8265 20.3358 73.3532 20.3358C74.0199 20.3358 74.5699 20.4958 75.0032 20.8158C75.4432 21.1292 75.7399 21.5792 75.8932 22.1658H74.6632C74.5632 21.8925 74.4032 21.6792 74.1832 21.5258C73.9632 21.3725 73.6865 21.2958 73.3532 21.2958C72.8865 21.2958 72.5132 21.4625 72.2332 21.7958C71.9599 22.1225 71.8232 22.5825 71.8232 23.1758C71.8232 23.7692 71.9599 24.2325 72.2332 24.5658C72.5132 24.8992 72.8865 25.0658 73.3532 25.0658C74.0132 25.0658 74.4499 24.7758 74.6632 24.1958H75.8932C75.7332 24.7558 75.4332 25.2025 74.9932 25.5358C74.5532 25.8625 74.0065 26.0258 73.3532 26.0258C72.8265 26.0258 72.3599 25.9092 71.9532 25.6758C71.5465 25.4358 71.2265 25.1025 70.9932 24.6758C70.7665 24.2425 70.6532 23.7425 70.6532 23.1758Z"/>
<path d="M82.0793 23.0458C82.0793 23.2525 82.066 23.4392 82.0393 23.6058H77.8293C77.8626 24.0458 78.026 24.3992 78.3193 24.6658C78.6126 24.9325 78.9726 25.0658 79.3993 25.0658C80.0126 25.0658 80.446 24.8092 80.6993 24.2958H81.9293C81.7626 24.8025 81.4593 25.2192 81.0193 25.5458C80.586 25.8658 80.046 26.0258 79.3993 26.0258C78.8726 26.0258 78.3993 25.9092 77.9793 25.6758C77.566 25.4358 77.2393 25.1025 76.9993 24.6758C76.766 24.2425 76.6493 23.7425 76.6493 23.1758C76.6493 22.6092 76.7626 22.1125 76.9893 21.6858C77.2226 21.2525 77.546 20.9192 77.9593 20.6858C78.3793 20.4525 78.8593 20.3358 79.3993 20.3358C79.9193 20.3358 80.3826 20.4492 80.7893 20.6758C81.196 20.9025 81.5126 21.2225 81.7393 21.6358C81.966 22.0425 82.0793 22.5125 82.0793 23.0458ZM80.8893 22.6858C80.8826 22.2658 80.7326 21.9292 80.4393 21.6758C80.146 21.4225 79.7826 21.2958 79.3493 21.2958C78.956 21.2958 78.6193 21.4225 78.3393 21.6758C78.0593 21.9225 77.8926 22.2592 77.8393 22.6858H80.8893Z"/>
</mask>
<path d="M3.02 18.9858C3.76 18.9858 4.40667 19.1292 4.96 19.4158C5.52 19.6958 5.95 20.1025 6.25 20.6358C6.55667 21.1625 6.71 21.7792 6.71 22.4858C6.71 23.1925 6.55667 23.8058 6.25 24.3258C5.95 24.8458 5.52 25.2458 4.96 25.5258C4.40667 25.7992 3.76 25.9358 3.02 25.9358H0.75V18.9858H3.02ZM3.02 25.0058C3.83333 25.0058 4.45667 24.7858 4.89 24.3458C5.32333 23.9058 5.54 23.2858 5.54 22.4858C5.54 21.6792 5.32333 21.0492 4.89 20.5958C4.45667 20.1425 3.83333 19.9158 3.02 19.9158H1.89V25.0058H3.02Z" fill="black"/>
<path d="M8.41984 19.6958C8.21318 19.6958 8.03984 19.6258 7.89984 19.4858C7.75984 19.3458 7.68984 19.1725 7.68984 18.9658C7.68984 18.7592 7.75984 18.5858 7.89984 18.4458C8.03984 18.3058 8.21318 18.2358 8.41984 18.2358C8.61984 18.2358 8.78984 18.3058 8.92984 18.4458C9.06984 18.5858 9.13984 18.7592 9.13984 18.9658C9.13984 19.1725 9.06984 19.3458 8.92984 19.4858C8.78984 19.6258 8.61984 19.6958 8.41984 19.6958ZM8.97984 20.4258V25.9358H7.83984V20.4258H8.97984Z" fill="black"/>
<path d="M12.6966 20.3358C13.1232 20.3358 13.4999 20.4225 13.8266 20.5958C14.1599 20.7625 14.4199 20.9725 14.6066 21.2258V20.4258H15.7566V26.0258C15.7566 26.5325 15.6499 26.9825 15.4366 27.3758C15.2232 27.7758 14.9132 28.0892 14.5066 28.3158C14.1066 28.5425 13.6266 28.6558 13.0666 28.6558C12.3199 28.6558 11.6999 28.4792 11.2066 28.1258C10.7132 27.7792 10.4332 27.3058 10.3666 26.7058H11.4966C11.5832 26.9925 11.7666 27.2225 12.0466 27.3958C12.3332 27.5758 12.6732 27.6658 13.0666 27.6658C13.5266 27.6658 13.8966 27.5258 14.1766 27.2458C14.4632 26.9658 14.6066 26.5592 14.6066 26.0258V25.1058C14.4132 25.3658 14.1499 25.5858 13.8166 25.7658C13.4899 25.9392 13.1166 26.0258 12.6966 26.0258C12.2166 26.0258 11.7766 25.9058 11.3766 25.6658C10.9832 25.4192 10.6699 25.0792 10.4366 24.6458C10.2099 24.2058 10.0966 23.7092 10.0966 23.1558C10.0966 22.6025 10.2099 22.1125 10.4366 21.6858C10.6699 21.2592 10.9832 20.9292 11.3766 20.6958C11.7766 20.4558 12.2166 20.3358 12.6966 20.3358ZM14.6066 23.1758C14.6066 22.7958 14.5266 22.4658 14.3666 22.1858C14.2132 21.9058 14.0099 21.6925 13.7566 21.5458C13.5032 21.3992 13.2299 21.3258 12.9366 21.3258C12.6432 21.3258 12.3699 21.3992 12.1166 21.5458C11.8632 21.6858 11.6566 21.8958 11.4966 22.1758C11.3432 22.4492 11.2666 22.7758 11.2666 23.1558C11.2666 23.5358 11.3432 23.8692 11.4966 24.1558C11.6566 24.4425 11.8632 24.6625 12.1166 24.8158C12.3766 24.9625 12.6499 25.0358 12.9366 25.0358C13.2299 25.0358 13.5032 24.9625 13.7566 24.8158C14.0099 24.6692 14.2132 24.4558 14.3666 24.1758C14.5266 23.8892 14.6066 23.5558 14.6066 23.1758Z" fill="black"/>
<path d="M17.8339 19.6958C17.6272 19.6958 17.4539 19.6258 17.3139 19.4858C17.1739 19.3458 17.1039 19.1725 17.1039 18.9658C17.1039 18.7592 17.1739 18.5858 17.3139 18.4458C17.4539 18.3058 17.6272 18.2358 17.8339 18.2358C18.0339 18.2358 18.2039 18.3058 18.3439 18.4458C18.4839 18.5858 18.5539 18.7592 18.5539 18.9658C18.5539 19.1725 18.4839 19.3458 18.3439 19.4858C18.2039 19.6258 18.0339 19.6958 17.8339 19.6958ZM18.3939 20.4258V25.9358H17.2539V20.4258H18.3939Z" fill="black"/>
<path d="M21.2206 21.3558V24.4058C21.2206 24.6125 21.2673 24.7625 21.3606 24.8558C21.4606 24.9425 21.6273 24.9858 21.8606 24.9858H22.5606V25.9358H21.6606C21.1473 25.9358 20.754 25.8158 20.4806 25.5758C20.2073 25.3358 20.0706 24.9458 20.0706 24.4058V21.3558H19.4206V20.4258H20.0706V19.0558H21.2206V20.4258H22.5606V21.3558H21.2206Z" fill="black"/>
<path d="M23.2313 23.1558C23.2313 22.6025 23.3447 22.1125 23.5713 21.6858C23.8047 21.2592 24.118 20.9292 24.5113 20.6958C24.9113 20.4558 25.3513 20.3358 25.8313 20.3358C26.2647 20.3358 26.6413 20.4225 26.9613 20.5958C27.288 20.7625 27.548 20.9725 27.7413 21.2258V20.4258H28.8913V25.9358H27.7413V25.1158C27.548 25.3758 27.2847 25.5925 26.9513 25.7658C26.618 25.9392 26.238 26.0258 25.8113 26.0258C25.338 26.0258 24.9047 25.9058 24.5113 25.6658C24.118 25.4192 23.8047 25.0792 23.5713 24.6458C23.3447 24.2058 23.2313 23.7092 23.2313 23.1558ZM27.7413 23.1758C27.7413 22.7958 27.6613 22.4658 27.5013 22.1858C27.348 21.9058 27.1447 21.6925 26.8913 21.5458C26.638 21.3992 26.3647 21.3258 26.0713 21.3258C25.778 21.3258 25.5047 21.3992 25.2513 21.5458C24.998 21.6858 24.7913 21.8958 24.6313 22.1758C24.478 22.4492 24.4013 22.7758 24.4013 23.1558C24.4013 23.5358 24.478 23.8692 24.6313 24.1558C24.7913 24.4425 24.998 24.6625 25.2513 24.8158C25.5113 24.9625 25.7847 25.0358 26.0713 25.0358C26.3647 25.0358 26.638 24.9625 26.8913 24.8158C27.1447 24.6692 27.348 24.4558 27.5013 24.1758C27.6613 23.8892 27.7413 23.5558 27.7413 23.1758Z" fill="black"/>
<path d="M31.5287 18.5358V25.9358H30.3887V18.5358H31.5287Z" fill="black"/>
<path d="M37.933 21.3558H36.913V25.9358H35.763V21.3558H35.113V20.4258H35.763V20.0358C35.763 19.4025 35.9297 18.9425 36.263 18.6558C36.603 18.3625 37.133 18.2158 37.853 18.2158V19.1658C37.5064 19.1658 37.263 19.2325 37.123 19.3658C36.983 19.4925 36.913 19.7158 36.913 20.0358V20.4258H37.933V21.3558Z" fill="black"/>
<path d="M40.0834 21.2258C40.25 20.9458 40.47 20.7292 40.7434 20.5758C41.0234 20.4158 41.3534 20.3358 41.7334 20.3358V21.5158H41.4434C40.9967 21.5158 40.6567 21.6292 40.4234 21.8558C40.1967 22.0825 40.0834 22.4758 40.0834 23.0358V25.9358H38.9434V20.4258H40.0834V21.2258Z" fill="black"/>
<path d="M47.8312 23.0458C47.8312 23.2525 47.8179 23.4392 47.7913 23.6058H43.5812C43.6146 24.0458 43.7779 24.3992 44.0713 24.6658C44.3646 24.9325 44.7246 25.0658 45.1512 25.0658C45.7646 25.0658 46.1979 24.8092 46.4513 24.2958H47.6813C47.5146 24.8025 47.2113 25.2192 46.7713 25.5458C46.3379 25.8658 45.7979 26.0258 45.1512 26.0258C44.6246 26.0258 44.1513 25.9092 43.7313 25.6758C43.3179 25.4358 42.9913 25.1025 42.7513 24.6758C42.5179 24.2425 42.4012 23.7425 42.4012 23.1758C42.4012 22.6092 42.5146 22.1125 42.7412 21.6858C42.9746 21.2525 43.2979 20.9192 43.7113 20.6858C44.1313 20.4525 44.6112 20.3358 45.1512 20.3358C45.6712 20.3358 46.1346 20.4492 46.5413 20.6758C46.9479 20.9025 47.2646 21.2225 47.4912 21.6358C47.7179 22.0425 47.8312 22.5125 47.8312 23.0458ZM46.6413 22.6858C46.6346 22.2658 46.4846 21.9292 46.1912 21.6758C45.8979 21.4225 45.5346 21.2958 45.1012 21.2958C44.7079 21.2958 44.3713 21.4225 44.0913 21.6758C43.8113 21.9225 43.6446 22.2592 43.5913 22.6858H46.6413Z" fill="black"/>
<path d="M54.0031 23.0458C54.0031 23.2525 53.9898 23.4392 53.9631 23.6058H49.7531C49.7865 24.0458 49.9498 24.3992 50.2431 24.6658C50.5365 24.9325 50.8965 25.0658 51.3231 25.0658C51.9365 25.0658 52.3698 24.8092 52.6231 24.2958H53.8531C53.6865 24.8025 53.3831 25.2192 52.9431 25.5458C52.5098 25.8658 51.9698 26.0258 51.3231 26.0258C50.7965 26.0258 50.3231 25.9092 49.9031 25.6758C49.4898 25.4358 49.1631 25.1025 48.9231 24.6758C48.6898 24.2425 48.5731 23.7425 48.5731 23.1758C48.5731 22.6092 48.6865 22.1125 48.9131 21.6858C49.1465 21.2525 49.4698 20.9192 49.8831 20.6858C50.3031 20.4525 50.7831 20.3358 51.3231 20.3358C51.8431 20.3358 52.3065 20.4492 52.7131 20.6758C53.1198 20.9025 53.4365 21.2225 53.6631 21.6358C53.8898 22.0425 54.0031 22.5125 54.0031 23.0458ZM52.8131 22.6858C52.8065 22.2658 52.6565 21.9292 52.3631 21.6758C52.0698 21.4225 51.7065 21.2958 51.2731 21.2958C50.8798 21.2958 50.5431 21.4225 50.2631 21.6758C49.9831 21.9225 49.8165 22.2592 49.7631 22.6858H52.8131Z" fill="black"/>
<path d="M56.265 18.5358V25.9358H55.125V18.5358H56.265Z" fill="black"/>
<path d="M57.3817 23.1558C57.3817 22.6025 57.4951 22.1125 57.7217 21.6858C57.9551 21.2592 58.2684 20.9292 58.6617 20.6958C59.0617 20.4558 59.5017 20.3358 59.9817 20.3358C60.4151 20.3358 60.7917 20.4225 61.1117 20.5958C61.4384 20.7625 61.6984 20.9725 61.8917 21.2258V20.4258H63.0417V25.9358H61.8917V25.1158C61.6984 25.3758 61.4351 25.5925 61.1017 25.7658C60.7684 25.9392 60.3884 26.0258 59.9617 26.0258C59.4884 26.0258 59.0551 25.9058 58.6617 25.6658C58.2684 25.4192 57.9551 25.0792 57.7217 24.6458C57.4951 24.2058 57.3817 23.7092 57.3817 23.1558ZM61.8917 23.1758C61.8917 22.7958 61.8117 22.4658 61.6517 22.1858C61.4984 21.9058 61.2951 21.6925 61.0417 21.5458C60.7884 21.3992 60.5151 21.3258 60.2217 21.3258C59.9284 21.3258 59.6551 21.3992 59.4017 21.5458C59.1484 21.6858 58.9417 21.8958 58.7817 22.1758C58.6284 22.4492 58.5517 22.7758 58.5517 23.1558C58.5517 23.5358 58.6284 23.8692 58.7817 24.1558C58.9417 24.4425 59.1484 24.6625 59.4017 24.8158C59.6617 24.9625 59.9351 25.0358 60.2217 25.0358C60.5151 25.0358 60.7884 24.9625 61.0417 24.8158C61.2951 24.6692 61.4984 24.4558 61.6517 24.1758C61.8117 23.8892 61.8917 23.5558 61.8917 23.1758Z" fill="black"/>
<path d="M67.3191 20.3358C67.7524 20.3358 68.1391 20.4258 68.4791 20.6058C68.8257 20.7858 69.0957 21.0525 69.2891 21.4058C69.4824 21.7592 69.5791 22.1858 69.5791 22.6858V25.9358H68.4491V22.8558C68.4491 22.3625 68.3257 21.9858 68.0791 21.7258C67.8324 21.4592 67.4957 21.3258 67.0691 21.3258C66.6424 21.3258 66.3024 21.4592 66.0491 21.7258C65.8024 21.9858 65.6791 22.3625 65.6791 22.8558V25.9358H64.5391V20.4258H65.6791V21.0558C65.8657 20.8292 66.1024 20.6525 66.3891 20.5258C66.6824 20.3992 66.9924 20.3358 67.3191 20.3358Z" fill="black"/>
<path d="M70.6532 23.1758C70.6532 22.6092 70.7665 22.1125 70.9932 21.6858C71.2265 21.2525 71.5465 20.9192 71.9532 20.6858C72.3599 20.4525 72.8265 20.3358 73.3532 20.3358C74.0199 20.3358 74.5699 20.4958 75.0032 20.8158C75.4432 21.1292 75.7399 21.5792 75.8932 22.1658H74.6632C74.5632 21.8925 74.4032 21.6792 74.1832 21.5258C73.9632 21.3725 73.6865 21.2958 73.3532 21.2958C72.8865 21.2958 72.5132 21.4625 72.2332 21.7958C71.9599 22.1225 71.8232 22.5825 71.8232 23.1758C71.8232 23.7692 71.9599 24.2325 72.2332 24.5658C72.5132 24.8992 72.8865 25.0658 73.3532 25.0658C74.0132 25.0658 74.4499 24.7758 74.6632 24.1958H75.8932C75.7332 24.7558 75.4332 25.2025 74.9932 25.5358C74.5532 25.8625 74.0065 26.0258 73.3532 26.0258C72.8265 26.0258 72.3599 25.9092 71.9532 25.6758C71.5465 25.4358 71.2265 25.1025 70.9932 24.6758C70.7665 24.2425 70.6532 23.7425 70.6532 23.1758Z" fill="black"/>
<path d="M82.0793 23.0458C82.0793 23.2525 82.066 23.4392 82.0393 23.6058H77.8293C77.8626 24.0458 78.026 24.3992 78.3193 24.6658C78.6126 24.9325 78.9726 25.0658 79.3993 25.0658C80.0126 25.0658 80.446 24.8092 80.6993 24.2958H81.9293C81.7626 24.8025 81.4593 25.2192 81.0193 25.5458C80.586 25.8658 80.046 26.0258 79.3993 26.0258C78.8726 26.0258 78.3993 25.9092 77.9793 25.6758C77.566 25.4358 77.2393 25.1025 76.9993 24.6758C76.766 24.2425 76.6493 23.7425 76.6493 23.1758C76.6493 22.6092 76.7626 22.1125 76.9893 21.6858C77.2226 21.2525 77.546 20.9192 77.9593 20.6858C78.3793 20.4525 78.8593 20.3358 79.3993 20.3358C79.9193 20.3358 80.3826 20.4492 80.7893 20.6758C81.196 20.9025 81.5126 21.2225 81.7393 21.6358C81.966 22.0425 82.0793 22.5125 82.0793 23.0458ZM80.8893 22.6858C80.8826 22.2658 80.7326 21.9292 80.4393 21.6758C80.146 21.4225 79.7826 21.2958 79.3493 21.2958C78.956 21.2958 78.6193 21.4225 78.3393 21.6758C78.0593 21.9225 77.8926 22.2592 77.8393 22.6858H80.8893Z" fill="black"/>
<path d="M3.02 18.9858C3.76 18.9858 4.40667 19.1292 4.96 19.4158C5.52 19.6958 5.95 20.1025 6.25 20.6358C6.55667 21.1625 6.71 21.7792 6.71 22.4858C6.71 23.1925 6.55667 23.8058 6.25 24.3258C5.95 24.8458 5.52 25.2458 4.96 25.5258C4.40667 25.7992 3.76 25.9358 3.02 25.9358H0.75V18.9858H3.02ZM3.02 25.0058C3.83333 25.0058 4.45667 24.7858 4.89 24.3458C5.32333 23.9058 5.54 23.2858 5.54 22.4858C5.54 21.6792 5.32333 21.0492 4.89 20.5958C4.45667 20.1425 3.83333 19.9158 3.02 19.9158H1.89V25.0058H3.02Z" stroke="black" stroke-width="2" mask="url(#path-2-inside-2_111_115)"/>
<path d="M8.41984 19.6958C8.21318 19.6958 8.03984 19.6258 7.89984 19.4858C7.75984 19.3458 7.68984 19.1725 7.68984 18.9658C7.68984 18.7592 7.75984 18.5858 7.89984 18.4458C8.03984 18.3058 8.21318 18.2358 8.41984 18.2358C8.61984 18.2358 8.78984 18.3058 8.92984 18.4458C9.06984 18.5858 9.13984 18.7592 9.13984 18.9658C9.13984 19.1725 9.06984 19.3458 8.92984 19.4858C8.78984 19.6258 8.61984 19.6958 8.41984 19.6958ZM8.97984 20.4258V25.9358H7.83984V20.4258H8.97984Z" stroke="black" stroke-width="2" mask="url(#path-2-inside-2_111_115)"/>
<path d="M12.6966 20.3358C13.1232 20.3358 13.4999 20.4225 13.8266 20.5958C14.1599 20.7625 14.4199 20.9725 14.6066 21.2258V20.4258H15.7566V26.0258C15.7566 26.5325 15.6499 26.9825 15.4366 27.3758C15.2232 27.7758 14.9132 28.0892 14.5066 28.3158C14.1066 28.5425 13.6266 28.6558 13.0666 28.6558C12.3199 28.6558 11.6999 28.4792 11.2066 28.1258C10.7132 27.7792 10.4332 27.3058 10.3666 26.7058H11.4966C11.5832 26.9925 11.7666 27.2225 12.0466 27.3958C12.3332 27.5758 12.6732 27.6658 13.0666 27.6658C13.5266 27.6658 13.8966 27.5258 14.1766 27.2458C14.4632 26.9658 14.6066 26.5592 14.6066 26.0258V25.1058C14.4132 25.3658 14.1499 25.5858 13.8166 25.7658C13.4899 25.9392 13.1166 26.0258 12.6966 26.0258C12.2166 26.0258 11.7766 25.9058 11.3766 25.6658C10.9832 25.4192 10.6699 25.0792 10.4366 24.6458C10.2099 24.2058 10.0966 23.7092 10.0966 23.1558C10.0966 22.6025 10.2099 22.1125 10.4366 21.6858C10.6699 21.2592 10.9832 20.9292 11.3766 20.6958C11.7766 20.4558 12.2166 20.3358 12.6966 20.3358ZM14.6066 23.1758C14.6066 22.7958 14.5266 22.4658 14.3666 22.1858C14.2132 21.9058 14.0099 21.6925 13.7566 21.5458C13.5032 21.3992 13.2299 21.3258 12.9366 21.3258C12.6432 21.3258 12.3699 21.3992 12.1166 21.5458C11.8632 21.6858 11.6566 21.8958 11.4966 22.1758C11.3432 22.4492 11.2666 22.7758 11.2666 23.1558C11.2666 23.5358 11.3432 23.8692 11.4966 24.1558C11.6566 24.4425 11.8632 24.6625 12.1166 24.8158C12.3766 24.9625 12.6499 25.0358 12.9366 25.0358C13.2299 25.0358 13.5032 24.9625 13.7566 24.8158C14.0099 24.6692 14.2132 24.4558 14.3666 24.1758C14.5266 23.8892 14.6066 23.5558 14.6066 23.1758Z" stroke="black" stroke-width="2" mask="url(#path-2-inside-2_111_115)"/>
<path d="M17.8339 19.6958C17.6272 19.6958 17.4539 19.6258 17.3139 19.4858C17.1739 19.3458 17.1039 19.1725 17.1039 18.9658C17.1039 18.7592 17.1739 18.5858 17.3139 18.4458C17.4539 18.3058 17.6272 18.2358 17.8339 18.2358C18.0339 18.2358 18.2039 18.3058 18.3439 18.4458C18.4839 18.5858 18.5539 18.7592 18.5539 18.9658C18.5539 19.1725 18.4839 19.3458 18.3439 19.4858C18.2039 19.6258 18.0339 19.6958 17.8339 19.6958ZM18.3939 20.4258V25.9358H17.2539V20.4258H18.3939Z" stroke="black" stroke-width="2" mask="url(#path-2-inside-2_111_115)"/>
<path d="M21.2206 21.3558V24.4058C21.2206 24.6125 21.2673 24.7625 21.3606 24.8558C21.4606 24.9425 21.6273 24.9858 21.8606 24.9858H22.5606V25.9358H21.6606C21.1473 25.9358 20.754 25.8158 20.4806 25.5758C20.2073 25.3358 20.0706 24.9458 20.0706 24.4058V21.3558H19.4206V20.4258H20.0706V19.0558H21.2206V20.4258H22.5606V21.3558H21.2206Z" stroke="black" stroke-width="2" mask="url(#path-2-inside-2_111_115)"/>
<path d="M23.2313 23.1558C23.2313 22.6025 23.3447 22.1125 23.5713 21.6858C23.8047 21.2592 24.118 20.9292 24.5113 20.6958C24.9113 20.4558 25.3513 20.3358 25.8313 20.3358C26.2647 20.3358 26.6413 20.4225 26.9613 20.5958C27.288 20.7625 27.548 20.9725 27.7413 21.2258V20.4258H28.8913V25.9358H27.7413V25.1158C27.548 25.3758 27.2847 25.5925 26.9513 25.7658C26.618 25.9392 26.238 26.0258 25.8113 26.0258C25.338 26.0258 24.9047 25.9058 24.5113 25.6658C24.118 25.4192 23.8047 25.0792 23.5713 24.6458C23.3447 24.2058 23.2313 23.7092 23.2313 23.1558ZM27.7413 23.1758C27.7413 22.7958 27.6613 22.4658 27.5013 22.1858C27.348 21.9058 27.1447 21.6925 26.8913 21.5458C26.638 21.3992 26.3647 21.3258 26.0713 21.3258C25.778 21.3258 25.5047 21.3992 25.2513 21.5458C24.998 21.6858 24.7913 21.8958 24.6313 22.1758C24.478 22.4492 24.4013 22.7758 24.4013 23.1558C24.4013 23.5358 24.478 23.8692 24.6313 24.1558C24.7913 24.4425 24.998 24.6625 25.2513 24.8158C25.5113 24.9625 25.7847 25.0358 26.0713 25.0358C26.3647 25.0358 26.638 24.9625 26.8913 24.8158C27.1447 24.6692 27.348 24.4558 27.5013 24.1758C27.6613 23.8892 27.7413 23.5558 27.7413 23.1758Z" stroke="black" stroke-width="2" mask="url(#path-2-inside-2_111_115)"/>
<path d="M31.5287 18.5358V25.9358H30.3887V18.5358H31.5287Z" stroke="black" stroke-width="2" mask="url(#path-2-inside-2_111_115)"/>
<path d="M37.933 21.3558H36.913V25.9358H35.763V21.3558H35.113V20.4258H35.763V20.0358C35.763 19.4025 35.9297 18.9425 36.263 18.6558C36.603 18.3625 37.133 18.2158 37.853 18.2158V19.1658C37.5064 19.1658 37.263 19.2325 37.123 19.3658C36.983 19.4925 36.913 19.7158 36.913 20.0358V20.4258H37.933V21.3558Z" stroke="black" stroke-width="2" mask="url(#path-2-inside-2_111_115)"/>
<path d="M40.0834 21.2258C40.25 20.9458 40.47 20.7292 40.7434 20.5758C41.0234 20.4158 41.3534 20.3358 41.7334 20.3358V21.5158H41.4434C40.9967 21.5158 40.6567 21.6292 40.4234 21.8558C40.1967 22.0825 40.0834 22.4758 40.0834 23.0358V25.9358H38.9434V20.4258H40.0834V21.2258Z" stroke="black" stroke-width="2" mask="url(#path-2-inside-2_111_115)"/>
<path d="M47.8312 23.0458C47.8312 23.2525 47.8179 23.4392 47.7913 23.6058H43.5812C43.6146 24.0458 43.7779 24.3992 44.0713 24.6658C44.3646 24.9325 44.7246 25.0658 45.1512 25.0658C45.7646 25.0658 46.1979 24.8092 46.4513 24.2958H47.6813C47.5146 24.8025 47.2113 25.2192 46.7713 25.5458C46.3379 25.8658 45.7979 26.0258 45.1512 26.0258C44.6246 26.0258 44.1513 25.9092 43.7313 25.6758C43.3179 25.4358 42.9913 25.1025 42.7513 24.6758C42.5179 24.2425 42.4012 23.7425 42.4012 23.1758C42.4012 22.6092 42.5146 22.1125 42.7412 21.6858C42.9746 21.2525 43.2979 20.9192 43.7113 20.6858C44.1313 20.4525 44.6112 20.3358 45.1512 20.3358C45.6712 20.3358 46.1346 20.4492 46.5413 20.6758C46.9479 20.9025 47.2646 21.2225 47.4912 21.6358C47.7179 22.0425 47.8312 22.5125 47.8312 23.0458ZM46.6413 22.6858C46.6346 22.2658 46.4846 21.9292 46.1912 21.6758C45.8979 21.4225 45.5346 21.2958 45.1012 21.2958C44.7079 21.2958 44.3713 21.4225 44.0913 21.6758C43.8113 21.9225 43.6446 22.2592 43.5913 22.6858H46.6413Z" stroke="black" stroke-width="2" mask="url(#path-2-inside-2_111_115)"/>
<path d="M54.0031 23.0458C54.0031 23.2525 53.9898 23.4392 53.9631 23.6058H49.7531C49.7865 24.0458 49.9498 24.3992 50.2431 24.6658C50.5365 24.9325 50.8965 25.0658 51.3231 25.0658C51.9365 25.0658 52.3698 24.8092 52.6231 24.2958H53.8531C53.6865 24.8025 53.3831 25.2192 52.9431 25.5458C52.5098 25.8658 51.9698 26.0258 51.3231 26.0258C50.7965 26.0258 50.3231 25.9092 49.9031 25.6758C49.4898 25.4358 49.1631 25.1025 48.9231 24.6758C48.6898 24.2425 48.5731 23.7425 48.5731 23.1758C48.5731 22.6092 48.6865 22.1125 48.9131 21.6858C49.1465 21.2525 49.4698 20.9192 49.8831 20.6858C50.3031 20.4525 50.7831 20.3358 51.3231 20.3358C51.8431 20.3358 52.3065 20.4492 52.7131 20.6758C53.1198 20.9025 53.4365 21.2225 53.6631 21.6358C53.8898 22.0425 54.0031 22.5125 54.0031 23.0458ZM52.8131 22.6858C52.8065 22.2658 52.6565 21.9292 52.3631 21.6758C52.0698 21.4225 51.7065 21.2958 51.2731 21.2958C50.8798 21.2958 50.5431 21.4225 50.2631 21.6758C49.9831 21.9225 49.8165 22.2592 49.7631 22.6858H52.8131Z" stroke="black" stroke-width="2" mask="url(#path-2-inside-2_111_115)"/>
<path d="M56.265 18.5358V25.9358H55.125V18.5358H56.265Z" stroke="black" stroke-width="2" mask="url(#path-2-inside-2_111_115)"/>
<path d="M57.3817 23.1558C57.3817 22.6025 57.4951 22.1125 57.7217 21.6858C57.9551 21.2592 58.2684 20.9292 58.6617 20.6958C59.0617 20.4558 59.5017 20.3358 59.9817 20.3358C60.4151 20.3358 60.7917 20.4225 61.1117 20.5958C61.4384 20.7625 61.6984 20.9725 61.8917 21.2258V20.4258H63.0417V25.9358H61.8917V25.1158C61.6984 25.3758 61.4351 25.5925 61.1017 25.7658C60.7684 25.9392 60.3884 26.0258 59.9617 26.0258C59.4884 26.0258 59.0551 25.9058 58.6617 25.6658C58.2684 25.4192 57.9551 25.0792 57.7217 24.6458C57.4951 24.2058 57.3817 23.7092 57.3817 23.1558ZM61.8917 23.1758C61.8917 22.7958 61.8117 22.4658 61.6517 22.1858C61.4984 21.9058 61.2951 21.6925 61.0417 21.5458C60.7884 21.3992 60.5151 21.3258 60.2217 21.3258C59.9284 21.3258 59.6551 21.3992 59.4017 21.5458C59.1484 21.6858 58.9417 21.8958 58.7817 22.1758C58.6284 22.4492 58.5517 22.7758 58.5517 23.1558C58.5517 23.5358 58.6284 23.8692 58.7817 24.1558C58.9417 24.4425 59.1484 24.6625 59.4017 24.8158C59.6617 24.9625 59.9351 25.0358 60.2217 25.0358C60.5151 25.0358 60.7884 24.9625 61.0417 24.8158C61.2951 24.6692 61.4984 24.4558 61.6517 24.1758C61.8117 23.8892 61.8917 23.5558 61.8917 23.1758Z" stroke="black" stroke-width="2" mask="url(#path-2-inside-2_111_115)"/>
<path d="M67.3191 20.3358C67.7524 20.3358 68.1391 20.4258 68.4791 20.6058C68.8257 20.7858 69.0957 21.0525 69.2891 21.4058C69.4824 21.7592 69.5791 22.1858 69.5791 22.6858V25.9358H68.4491V22.8558C68.4491 22.3625 68.3257 21.9858 68.0791 21.7258C67.8324 21.4592 67.4957 21.3258 67.0691 21.3258C66.6424 21.3258 66.3024 21.4592 66.0491 21.7258C65.8024 21.9858 65.6791 22.3625 65.6791 22.8558V25.9358H64.5391V20.4258H65.6791V21.0558C65.8657 20.8292 66.1024 20.6525 66.3891 20.5258C66.6824 20.3992 66.9924 20.3358 67.3191 20.3358Z" stroke="black" stroke-width="2" mask="url(#path-2-inside-2_111_115)"/>
<path d="M70.6532 23.1758C70.6532 22.6092 70.7665 22.1125 70.9932 21.6858C71.2265 21.2525 71.5465 20.9192 71.9532 20.6858C72.3599 20.4525 72.8265 20.3358 73.3532 20.3358C74.0199 20.3358 74.5699 20.4958 75.0032 20.8158C75.4432 21.1292 75.7399 21.5792 75.8932 22.1658H74.6632C74.5632 21.8925 74.4032 21.6792 74.1832 21.5258C73.9632 21.3725 73.6865 21.2958 73.3532 21.2958C72.8865 21.2958 72.5132 21.4625 72.2332 21.7958C71.9599 22.1225 71.8232 22.5825 71.8232 23.1758C71.8232 23.7692 71.9599 24.2325 72.2332 24.5658C72.5132 24.8992 72.8865 25.0658 73.3532 25.0658C74.0132 25.0658 74.4499 24.7758 74.6632 24.1958H75.8932C75.7332 24.7558 75.4332 25.2025 74.9932 25.5358C74.5532 25.8625 74.0065 26.0258 73.3532 26.0258C72.8265 26.0258 72.3599 25.9092 71.9532 25.6758C71.5465 25.4358 71.2265 25.1025 70.9932 24.6758C70.7665 24.2425 70.6532 23.7425 70.6532 23.1758Z" stroke="black" stroke-width="2" mask="url(#path-2-inside-2_111_115)"/>
<path d="M82.0793 23.0458C82.0793 23.2525 82.066 23.4392 82.0393 23.6058H77.8293C77.8626 24.0458 78.026 24.3992 78.3193 24.6658C78.6126 24.9325 78.9726 25.0658 79.3993 25.0658C80.0126 25.0658 80.446 24.8092 80.6993 24.2958H81.9293C81.7626 24.8025 81.4593 25.2192 81.0193 25.5458C80.586 25.8658 80.046 26.0258 79.3993 26.0258C78.8726 26.0258 78.3993 25.9092 77.9793 25.6758C77.566 25.4358 77.2393 25.1025 76.9993 24.6758C76.766 24.2425 76.6493 23.7425 76.6493 23.1758C76.6493 22.6092 76.7626 22.1125 76.9893 21.6858C77.2226 21.2525 77.546 20.9192 77.9593 20.6858C78.3793 20.4525 78.8593 20.3358 79.3993 20.3358C79.9193 20.3358 80.3826 20.4492 80.7893 20.6758C81.196 20.9025 81.5126 21.2225 81.7393 21.6358C81.966 22.0425 82.0793 22.5125 82.0793 23.0458ZM80.8893 22.6858C80.8826 22.2658 80.7326 21.9292 80.4393 21.6758C80.146 21.4225 79.7826 21.2958 79.3493 21.2958C78.956 21.2958 78.6193 21.4225 78.3393 21.6758C78.0593 21.9225 77.8926 22.2592 77.8393 22.6858H80.8893Z" stroke="black" stroke-width="2" mask="url(#path-2-inside-2_111_115)"/>
</svg>
